<svg xmlns="http://www.w3.org/2000/svg" viewBox="0 0 145.23 113.94"><defs><style>.cls-1,.cls-8{fill:none;}.cls-2{fill:#fdb614;}.cls-3{fill:#f6851f;}.cls-4{fill:#f26222;}.cls-5{fill:#e45a33;}.cls-10,.cls-12,.cls-5,.cls-6,.cls-8,.cls-9{stroke:#47494c;stroke-miterlimit:10;}.cls-6{fill:#7e9180;}.cls-7{fill:#c5c3c6;}.cls-9{fill:#f57f20;}.cls-10{fill:#fff;}.cls-11{fill:#47494c;}.cls-12{fill:#8ac640;}</style></defs><g id="Layer_2" data-name="Layer 2"><g id="Layer_1-2" data-name="Layer 1"><g id="clear-day"><rect class="cls-1" width="145.23" height="113.94"/><g id="clear-day-2" data-name="clear-day"><g id="sun"><circle class="cls-2" cx="43.26" cy="39.31" r="36.33"/><circle class="cls-3" cx="43.26" cy="38.86" r="22.34"/><circle class="cls-4" cx="43.26" cy="39.01" r="9.93"/></g><g id="house"><path class="cls-5" d="M57.27,53.25v6l-4.83,4.83V53.25a.58.58,0,0,1,.59-.58h3.66A.58.58,0,0,1,57.27,53.25Z"/><path class="cls-6" d="M92.21,75.3h0a1.67,1.67,0,0,1-2.36,0l-1.72-1.72-2.72-2.72-16-16a2.08,2.08,0,0,0-2.94,0L57.23,64l-3.46,3.46-3.38,3.38-2.65,2.65L46,75.3a1.67,1.67,0,0,1-2.36,0h0a1.67,1.67,0,0,1,0-2.36l8.81-8.81,4.83-4.83L65.54,51h0a3.34,3.34,0,0,1,4.72,0L92.21,72.94A1.67,1.67,0,0,1,92.21,75.3Z"/><path class="cls-7" d="M88.09,73.58V99.13H47.7V73.51l2.65-2.65,3.38-3.38L57.19,64l9.24-9.24a2,2,0,0,1,2.87,0L85.37,70.86Z"/><path class="cls-8" d="M71.36,99.13H47.7V73.51l2.65-2.65,3.38-3.38L57.19,64l9.24-9.24a2,2,0,0,1,2.87,0L85.37,70.86l2.72,2.72V99.13"/><path class="cls-9" d="M64.33,85.89h7.14a.6.6,0,0,1,.6.6V99.13a0,0,0,0,1,0,0H63.73a0,0,0,0,1,0,0V86.49A.6.6,0,0,1,64.33,85.89Z"/><rect class="cls-10" x="54.29" y="75.27" width="6.29" height="6.29" rx="0.57"/><rect class="cls-10" x="75.23" y="75.27" width="6.29" height="6.29" rx="0.57"/><rect class="cls-11" x="53.36" y="48.63" width="3.45" height="1.5" rx="0.38"/><rect class="cls-11" x="55.41" y="46.11" width="2.32" height="0.95" rx="0.34"/></g><g id="lower"><rect class="cls-11" x="35.09" y="98.7" width="40.14" height="1.34" rx="0.67"/><rect class="cls-11" x="85.1" y="98.7" width="15.35" height="1.34" rx="0.67"/><rect class="cls-11" x="80.74" y="102.76" width="8.83" height="1.34" rx="0.67"/><rect class="cls-11" x="42.99" y="102.76" width="26.21" height="1.34" rx="0.67"/><rect class="cls-11" x="40.39" y="91.73" width="5.94" height="1.34" rx="0.67" transform="translate(135.76 49.04) rotate(90)"/></g><g id="tree"><rect class="cls-11" x="87.82" y="91.59" width="12.86" height="1.34" transform="translate(186.52 -1.99) rotate(90)"/><path class="cls-12" d="M90.15,68.24a7.41,7.41,0,0,1,5.27-2.7,7.21,7.21,0,0,1,5.35,2,7.48,7.48,0,0,1,2,6.13,6,6,0,0,1,4.45,3.12,5.6,5.6,0,0,1-.77,6,5.9,5.9,0,0,1-4.71,1.93,3.93,3.93,0,0,1-7.35,1.79,5.61,5.61,0,0,1-5.67,1.29,5.71,5.71,0,0,1-3.6-5.56,6.29,6.29,0,0,1,2.68-4.75,5.11,5.11,0,0,1-2.77-3.44,4.88,4.88,0,0,1,5.1-5.86Z"/></g><g id="outer"><circle class="cls-2" cx="38.61" cy="84.94" r="1.21"/><circle class="cls-2" cx="24.2" cy="88.26" r="1.21"/><circle class="cls-2" cx="36.14" cy="65.66" r="1.21"/><circle class="cls-2" cx="93.26" cy="54.6" r="1.21"/><circle class="cls-2" cx="108.54" cy="66.34" r="1.21"/><circle class="cls-2" cx="102.5" cy="92.36" r="1.21"/><path class="cls-2" d="M31.54,76.69a.28.28,0,0,0-.27.28v.42l-.46-.12a.27.27,0,0,0-.14.53l.43.12-.26.4a.3.3,0,0,0,.08.39.28.28,0,0,0,.15,0,.26.26,0,0,0,.23-.13l.25-.37.26.39a.26.26,0,0,0,.22.12.29.29,0,0,0,.16,0,.28.28,0,0,0,.07-.39L32,77.92l.43-.12a.28.28,0,0,0,.2-.34.28.28,0,0,0-.34-.19l-.45.12V77A.29.29,0,0,0,31.54,76.69Z"/><path class="cls-2" d="M35.64,93a.27.27,0,0,0-.27.28v.42l-.45-.12a.27.27,0,0,0-.34.19.28.28,0,0,0,.19.34l.44.12-.26.4A.27.27,0,0,0,35,95a.25.25,0,0,0,.15,0,.29.29,0,0,0,.23-.13l.24-.37.26.39a.27.27,0,0,0,.23.12.3.3,0,0,0,.15,0,.27.27,0,0,0,.08-.38l-.28-.42.42-.11a.28.28,0,0,0,.2-.34.27.27,0,0,0-.34-.19l-.45.12v-.42A.27.27,0,0,0,35.64,93Z"/><path class="cls-2" d="M90.08,60.9a.28.28,0,0,0-.28.28v.42l-.45-.12a.27.27,0,1,0-.14.53l.43.12-.26.4a.27.27,0,0,0,.08.38.3.3,0,0,0,.15.05.28.28,0,0,0,.23-.13l.24-.37.26.39a.28.28,0,0,0,.23.12.25.25,0,0,0,.16,0,.28.28,0,0,0,.07-.38l-.28-.41L91,62a.27.27,0,0,0,.19-.34.28.28,0,0,0-.34-.19l-.45.12v-.42A.27.27,0,0,0,90.08,60.9Z"/><path class="cls-2" d="M109.23,85.53a.29.29,0,0,0-.28.28v.42l-.45-.12a.27.27,0,1,0-.14.53l.43.12-.26.4a.27.27,0,0,0,.08.38.3.3,0,0,0,.15,0,.28.28,0,0,0,.23-.13l.24-.37.26.39a.28.28,0,0,0,.23.12.29.29,0,0,0,.16,0,.28.28,0,0,0,.07-.39l-.28-.41.43-.12a.27.27,0,0,0-.14-.53l-.46.12v-.42A.28.28,0,0,0,109.23,85.53Z"/></g></g></g></g></g></svg>