<svg xmlns="http://www.w3.org/2000/svg" viewBox="0 0 145.23 113.94"><defs><style>.cls-1,.cls-6{fill:none;}.cls-2{fill:#f8b22f;}.cls-3{fill:#a43723;}.cls-10,.cls-3,.cls-4,.cls-6,.cls-7,.cls-8{stroke:#47494c;stroke-miterlimit:10;}.cls-4{fill:#4d5b4e;}.cls-5{fill:#787679;}.cls-7{fill:#ad4d25;}.cls-8{fill:#fdb614;}.cls-9{fill:#47494c;}.cls-10{fill:#53813b;}.cls-11{fill:#f9d48a;}</style></defs><g id="Layer_2" data-name="Layer 2"><g id="Layer_1-2" data-name="Layer 1"><g id="clear-night"><rect class="cls-1" width="145.23" height="113.94"/><g id="clear-night-2" data-name="clear-night"><path class="cls-2" d="M95.56,47.8a10.73,10.73,0,0,1-9.79,6.8c-5.9,0-10.7-5.11-10.7-11.42a11.21,11.21,0,0,1,9.12-11.29,13.67,13.67,0,0,0-.33,1.57c-1,6.78,3.36,13.14,9.71,14.19A12.21,12.21,0,0,0,95.56,47.8Z"/><g id="house"><path class="cls-3" d="M57.28,53.8v5.7l-4.83,4.58V53.8a.58.58,0,0,1,.59-.55H56.7A.57.57,0,0,1,57.28,53.8Z"/><path class="cls-4" d="M92.22,75.3h0a1.67,1.67,0,0,1-2.36,0l-1.72-1.72-2.72-2.72-16-16a2.08,2.08,0,0,0-2.94,0L57.24,64l-3.46,3.46L50.4,70.86l-2.65,2.65L46,75.3a1.67,1.67,0,0,1-2.36,0h0a1.67,1.67,0,0,1,0-2.36l8.81-8.81,4.83-4.83L65.55,51h0a3.33,3.33,0,0,1,4.72,0l22,21.95A1.67,1.67,0,0,1,92.22,75.3Z"/><path class="cls-5" d="M88.11,73.58V99.13H47.72V73.51l2.65-2.65,3.38-3.38L57.21,64l9.24-9.24a2,2,0,0,1,2.86,0L85.39,70.86Z"/><path class="cls-6" d="M71.38,99.13H47.72V73.51l2.65-2.65,3.38-3.38L57.21,64l9.24-9.24a2,2,0,0,1,2.86,0L85.39,70.86l2.72,2.72V99.13"/><path class="cls-7" d="M64.34,85.89h7.14a.6.6,0,0,1,.6.6V99.13a0,0,0,0,1,0,0H63.74a0,0,0,0,1,0,0V86.49A.6.6,0,0,1,64.34,85.89Z"/><rect class="cls-8" x="54.3" y="75.27" width="6.29" height="6.29" rx="0.57"/><rect class="cls-8" x="75.24" y="75.27" width="6.29" height="6.29" rx="0.57"/><rect class="cls-9" x="53.38" y="48.63" width="3.45" height="1.5" rx="0.38"/><rect class="cls-9" x="55.42" y="46.11" width="2.32" height="0.95" rx="0.34"/></g><g id="lower"><rect class="cls-9" x="35.1" y="98.7" width="40.14" height="1.34" rx="0.67"/><rect class="cls-9" x="85.11" y="98.7" width="15.35" height="1.34" rx="0.67"/><rect class="cls-9" x="80.76" y="102.76" width="8.83" height="1.34" rx="0.67"/><rect class="cls-9" x="43" y="102.76" width="26.21" height="1.34" rx="0.67"/><rect class="cls-9" x="40.4" y="91.73" width="5.94" height="1.34" rx="0.67" transform="translate(135.77 49.02) rotate(90)"/></g><g id="tree"><rect class="cls-9" x="87.84" y="91.59" width="12.86" height="1.34" transform="translate(186.53 -2) rotate(90)"/><path class="cls-10" d="M90.16,68.23a7.45,7.45,0,0,1,5.27-2.69,7.22,7.22,0,0,1,5.36,2,7.47,7.47,0,0,1,2,6.12,6,6,0,0,1,4.46,3.13,5.6,5.6,0,0,1-.78,6,5.89,5.89,0,0,1-4.71,1.93,3.92,3.92,0,0,1-7.34,1.79,5.62,5.62,0,0,1-5.68,1.28,5.69,5.69,0,0,1-3.6-5.55,6.34,6.34,0,0,1,2.69-4.76A4.84,4.84,0,0,1,86.12,70,5.12,5.12,0,0,1,90.16,68.23Z"/></g><g id="outer"><circle class="cls-11" cx="38.62" cy="84.94" r="1.21"/><circle class="cls-11" cx="24.21" cy="88.26" r="1.21"/><circle class="cls-11" cx="36.15" cy="65.66" r="1.21"/><circle class="cls-11" cx="93.27" cy="54.6" r="1.21"/><circle class="cls-11" cx="108.56" cy="66.34" r="1.21"/><circle class="cls-11" cx="102.52" cy="92.35" r="1.21"/><path class="cls-11" d="M31.55,76.69a.28.28,0,0,0-.27.28v.42l-.45-.12a.28.28,0,1,0-.15.53l.44.12-.26.4a.27.27,0,0,0,.08.38.25.25,0,0,0,.15,0,.29.29,0,0,0,.23-.13l.24-.37.26.39a.27.27,0,0,0,.23.12.28.28,0,0,0,.15,0,.29.29,0,0,0,.08-.39L32,77.92l.43-.12a.28.28,0,1,0-.15-.53l-.45.12V77A.28.28,0,0,0,31.55,76.69Z"/><path class="cls-11" d="M35.66,93a.28.28,0,0,0-.28.27v.43l-.45-.12a.27.27,0,0,0-.34.19.28.28,0,0,0,.2.34l.43.12-.26.4A.27.27,0,0,0,35,95a.28.28,0,0,0,.15,0,.27.27,0,0,0,.23-.12l.24-.37.26.39a.28.28,0,0,0,.23.12.27.27,0,0,0,.15,0,.27.27,0,0,0,.08-.38l-.28-.42.43-.11a.28.28,0,1,0-.15-.53l-.45.12v-.43A.27.27,0,0,0,35.66,93Z"/><path class="cls-11" d="M90.09,60.9a.27.27,0,0,0-.27.27v.43l-.46-.12a.27.27,0,0,0-.33.19.27.27,0,0,0,.19.34l.43.12-.26.4a.28.28,0,0,0,.08.38.3.3,0,0,0,.15.05.28.28,0,0,0,.23-.13l.25-.37.26.39a.27.27,0,0,0,.23.12.3.3,0,0,0,.15,0,.27.27,0,0,0,.07-.38l-.28-.42L91,62a.27.27,0,1,0-.14-.53l-.45.12v-.43A.28.28,0,0,0,90.09,60.9Z"/><path class="cls-11" d="M109.24,85.53a.27.27,0,0,0-.27.28v.42l-.45-.12a.28.28,0,0,0-.34.19.27.27,0,0,0,.19.34l.44.12-.27.4a.28.28,0,0,0,.08.38.3.3,0,0,0,.15,0,.28.28,0,0,0,.23-.13l.25-.37.26.39a.27.27,0,0,0,.23.12.23.23,0,0,0,.15,0,.26.26,0,0,0,.07-.38l-.28-.41.43-.12a.27.27,0,1,0-.14-.53l-.45.12v-.42A.28.28,0,0,0,109.24,85.53Z"/></g></g></g></g></g></svg>