<svg xmlns="http://www.w3.org/2000/svg" viewBox="0 0 145.23 113.94"><defs><style>.cls-1,.cls-6{fill:none;}.cls-2{fill:#ccebf1;stroke:#fff;stroke-width:2px;}.cls-10,.cls-2,.cls-3,.cls-4,.cls-6,.cls-7,.cls-8{stroke-miterlimit:10;}.cls-3{fill:#e45a33;}.cls-10,.cls-3,.cls-4,.cls-6,.cls-7,.cls-8{stroke:#47494c;}.cls-4{fill:#7e9180;}.cls-5{fill:#c5c3c6;}.cls-7{fill:#f57f20;}.cls-8{fill:#fff;}.cls-9{fill:#47494c;}.cls-10{fill:#8ac640;}.cls-11{fill:#fdb614;}</style></defs><g id="Layer_2" data-name="Layer 2"><g id="Layer_1-2" data-name="Layer 1"><g id="cloudy"><rect class="cls-1" width="145.23" height="113.94"/><g id="cloudy-2" data-name="cloudy"><g id="cloud"><path class="cls-2" d="M96.94,39.32c0,.14.07.23.1.31C99.77,48.22,94.8,55.2,85.79,55.2H60.44c-6,0-11.44-4.44-12-10.47,0-.37-.05-.74-.05-1.11A12.24,12.24,0,0,1,58,31.69a13.77,13.77,0,0,1,26.78-.28h.07C88.92,31.17,95,33.69,96.94,39.32Z"/><path class="cls-2" d="M68.89,59.63l.07.24c2,6.42-1.67,11.63-8.4,11.63h-19a8.86,8.86,0,0,1-9-7.82,7.56,7.56,0,0,1,0-.83,9.16,9.16,0,0,1,7.14-8.92,10.29,10.29,0,0,1,20-.21h0C62.9,53.55,67.43,55.43,68.89,59.63Z"/><path class="cls-2" d="M55.83,31.09c0,.08,0,.13.06.17,1.5,4.74-1.23,8.58-6.2,8.58h-14a6.54,6.54,0,0,1-6.6-5.77c0-.2,0-.41,0-.61a6.75,6.75,0,0,1,5.26-6.58,7.59,7.59,0,0,1,14.76-.15h0A6.91,6.91,0,0,1,55.83,31.09Z"/><path class="cls-2" d="M105.56,53.25c0,.07,0,.12,0,.15,1.29,4.08-1.06,7.38-5.33,7.38h-12a5.62,5.62,0,0,1-5.68-5,4.58,4.58,0,0,1,0-.53,5.8,5.8,0,0,1,4.53-5.65,6.53,6.53,0,0,1,12.7-.13h0A6,6,0,0,1,105.56,53.25Z"/></g><g id="house"><path class="cls-3" d="M57.28,53.81v5.7l-4.83,4.58V53.81a.57.57,0,0,1,.58-.55h3.66A.58.58,0,0,1,57.28,53.81Z"/><path class="cls-4" d="M92.21,75.31h0a1.67,1.67,0,0,1-2.36,0l-1.72-1.72-2.72-2.72-16-16a2.06,2.06,0,0,0-2.94,0L57.23,64l-3.46,3.46-3.38,3.38-2.65,2.65L46,75.31a1.67,1.67,0,0,1-2.36,0h0a1.67,1.67,0,0,1,0-2.36l8.81-8.81,4.83-4.83L65.54,51h0a3.33,3.33,0,0,1,4.72,0L92.21,73A1.65,1.65,0,0,1,92.21,75.31Z"/><path class="cls-5" d="M88.1,73.59V99.14H47.71V73.52l2.65-2.65,3.38-3.38L57.2,64l9.24-9.24a2,2,0,0,1,2.86,0L85.38,70.87Z"/><path class="cls-6" d="M71.37,99.14H47.71V73.52l2.65-2.65,3.38-3.38L57.2,64l9.24-9.24a2,2,0,0,1,2.86,0L85.38,70.87l2.72,2.72V99.14"/><path class="cls-7" d="M64.33,85.9h7.14a.6.6,0,0,1,.6.6V99.14a0,0,0,0,1,0,0H63.73a0,0,0,0,1,0,0V86.49A.6.6,0,0,1,64.33,85.9Z"/><rect class="cls-8" x="54.29" y="75.28" width="6.29" height="6.29" rx="0.57"/><rect class="cls-8" x="75.23" y="75.28" width="6.29" height="6.29" rx="0.57"/><rect class="cls-9" x="53.37" y="48.64" width="3.45" height="1.5" rx="0.38"/><rect class="cls-9" x="55.41" y="46.12" width="2.32" height="0.95" rx="0.34"/></g><g id="lower"><rect class="cls-9" x="35.09" y="98.7" width="40.14" height="1.34" rx="0.67"/><rect class="cls-9" x="85.1" y="98.7" width="15.35" height="1.34" rx="0.67"/><rect class="cls-9" x="80.75" y="102.77" width="8.83" height="1.34" rx="0.67"/><rect class="cls-9" x="43" y="102.77" width="26.21" height="1.34" rx="0.67"/><rect class="cls-9" x="40.4" y="91.74" width="5.94" height="1.34" rx="0.67" transform="translate(135.77 49.04) rotate(90)"/></g><g id="tree"><rect class="cls-9" x="87.83" y="91.6" width="12.86" height="1.34" transform="translate(186.53 -1.99) rotate(90)"/><path class="cls-10" d="M90.15,68.24a7.48,7.48,0,0,1,5.27-2.7,7.3,7.3,0,0,1,5.36,2,7.47,7.47,0,0,1,2,6.12,6,6,0,0,1,4.46,3.13,5.62,5.62,0,0,1-.77,6,5.92,5.92,0,0,1-4.72,1.93,3.92,3.92,0,0,1-7.34,1.79,5.62,5.62,0,0,1-5.68,1.28,5.68,5.68,0,0,1-3.59-5.55,6.31,6.31,0,0,1,2.68-4.76A4.84,4.84,0,0,1,86.11,70,5.13,5.13,0,0,1,90.15,68.24Z"/></g><g id="outer"><circle class="cls-11" cx="38.61" cy="84.95" r="1.21"/><circle class="cls-11" cx="24.21" cy="88.27" r="1.21"/><circle class="cls-11" cx="36.14" cy="65.67" r="1.21"/><circle class="cls-11" cx="93.26" cy="54.61" r="1.21"/><circle class="cls-11" cx="108.55" cy="66.34" r="1.21"/><circle class="cls-11" cx="102.51" cy="92.36" r="1.21"/><path class="cls-11" d="M31.55,76.7a.27.27,0,0,0-.28.28v.42l-.45-.12a.28.28,0,1,0-.15.53l.44.12-.26.4a.27.27,0,0,0,.08.38.27.27,0,0,0,.15.05.28.28,0,0,0,.23-.13l.24-.37.26.39a.27.27,0,0,0,.23.12.21.21,0,0,0,.15,0,.27.27,0,0,0,.08-.38L32,77.93l.43-.12a.28.28,0,1,0-.15-.53l-.45.12V77A.27.27,0,0,0,31.55,76.7Z"/><path class="cls-11" d="M35.65,93a.28.28,0,0,0-.28.27v.43l-.45-.13a.28.28,0,0,0-.34.2.28.28,0,0,0,.2.34l.43.11-.26.41A.27.27,0,0,0,35,95a.28.28,0,0,0,.15,0,.27.27,0,0,0,.23-.12l.24-.37.26.39a.31.31,0,0,0,.23.12.3.3,0,0,0,.16,0,.27.27,0,0,0,.07-.38l-.28-.42.43-.11a.28.28,0,0,0-.14-.54l-.46.13v-.43A.27.27,0,0,0,35.65,93Z"/><path class="cls-11" d="M90.08,60.91a.27.27,0,0,0-.27.27v.43l-.45-.12a.28.28,0,1,0-.15.53l.44.12-.27.4a.27.27,0,0,0,.23.42.3.3,0,0,0,.24-.12l.24-.37.26.39a.27.27,0,0,0,.23.12.3.3,0,0,0,.15,0,.26.26,0,0,0,.07-.38l-.27-.42L91,62a.28.28,0,0,0,.2-.34.27.27,0,0,0-.34-.19l-.45.12v-.43A.28.28,0,0,0,90.08,60.91Z"/><path class="cls-11" d="M109.23,85.54a.27.27,0,0,0-.27.27v.43l-.45-.12a.27.27,0,0,0-.34.19.28.28,0,0,0,.19.34l.44.12-.27.4a.28.28,0,0,0,.08.38.3.3,0,0,0,.15,0,.31.31,0,0,0,.24-.13l.24-.37.26.39a.27.27,0,0,0,.23.12.3.3,0,0,0,.15,0,.27.27,0,0,0,.08-.38l-.28-.42.42-.11a.28.28,0,0,0,.2-.34.27.27,0,0,0-.34-.19l-.45.12v-.43A.27.27,0,0,0,109.23,85.54Z"/></g></g></g></g></g></svg>