<svg xmlns="http://www.w3.org/2000/svg" viewBox="0 0 145.23 113.94"><defs><style>.cls-1,.cls-6{fill:none;}.cls-2{fill:#c4dde2;stroke:#fff;stroke-width:2px;}.cls-10,.cls-2,.cls-3,.cls-4,.cls-6,.cls-7,.cls-8{stroke-miterlimit:10;}.cls-3{fill:#d76546;}.cls-10,.cls-3,.cls-4,.cls-6,.cls-7,.cls-8{stroke:#47494c;}.cls-4{fill:#788779;}.cls-5{fill:#b7b5b8;}.cls-7{fill:#e6873b;}.cls-8{fill:#fff;}.cls-9{fill:#47494c;}.cls-10{fill:#8aba4b;}.cls-11{fill:#f8ddb2;}.cls-12{opacity:0.59;}.cls-13{fill:#c5cacc;}</style></defs><g id="Layer_2" data-name="Layer 2"><g id="Layer_1-2" data-name="Layer 1"><g id="fog"><rect class="cls-1" width="145.23" height="113.94"/><g id="fog-2" data-name="fog"><path class="cls-2" d="M121.3,51.57c0,.13.07.21.1.29,2.55,8-2.09,14.54-10.51,14.54H87.21A11.09,11.09,0,0,1,76,56.62c0-.34,0-.69,0-1a11.43,11.43,0,0,1,8.92-11.14,12.86,12.86,0,0,1,25-.26H110C113.81,44,119.48,46.31,121.3,51.57Z"/><path class="cls-2" d="M73.61,33a2.09,2.09,0,0,1,.09.27C76,40.6,71.8,46.52,64.15,46.52H42.63a10.08,10.08,0,0,1-10.17-8.88c0-.31,0-.63,0-1a10.38,10.38,0,0,1,8.11-10.12,11.69,11.69,0,0,1,22.73-.24h.06C66.81,26.13,72,28.26,73.61,33Z"/><path class="cls-2" d="M103,28.11l.09.28c2.44,7.68-2,13.92-10.06,13.92H70.38A10.62,10.62,0,0,1,59.66,33c0-.33,0-.66,0-1a10.93,10.93,0,0,1,8.55-10.66,12.31,12.31,0,0,1,24-.26h.06C95.85,20.82,101.28,23.07,103,28.11Z"/><path class="cls-2" d="M71.38,21.44a1.43,1.43,0,0,1,.06.21C73.26,27.36,70,32,64,32H47.09a7.89,7.89,0,0,1-8-7c0-.25,0-.49,0-.74a8.14,8.14,0,0,1,6.35-7.94,9.16,9.16,0,0,1,17.82-.19h0C66,16,70.08,17.69,71.38,21.44Z"/><path class="cls-2" d="M119.8,20.25a1.3,1.3,0,0,1,.06.19c1.64,5.16-1.34,9.34-6.76,9.34H97.88a7.13,7.13,0,0,1-7.2-6.28c0-.22,0-.44,0-.67a7.34,7.34,0,0,1,5.74-7.16,8.27,8.27,0,0,1,16.09-.17h0A7.55,7.55,0,0,1,119.8,20.25Z"/><path class="cls-2" d="M42.88,53.32l.07.19c1.64,5.16-1.35,9.35-6.76,9.35H21a7.13,7.13,0,0,1-7.2-6.29c0-.22,0-.44,0-.67a7.34,7.34,0,0,1,5.74-7.16,8.27,8.27,0,0,1,16.08-.17h0A7.54,7.54,0,0,1,42.88,53.32Z"/><g id="house"><path class="cls-3" d="M57.29,54.21v5.7l-4.83,4.58V54.21a.57.57,0,0,1,.58-.55H56.7A.57.57,0,0,1,57.29,54.21Z"/><path class="cls-4" d="M92.23,75.71h0a1.67,1.67,0,0,1-2.36,0L88.15,74l-2.72-2.72-16-16a2.08,2.08,0,0,0-2.94,0l-9.2,9.2-3.46,3.46-3.38,3.38-2.65,2.65L46,75.71a1.67,1.67,0,0,1-2.36,0h0a1.65,1.65,0,0,1,0-2.36l8.81-8.81,4.83-4.83,8.31-8.31h0a3.33,3.33,0,0,1,4.72,0l22,21.95A1.67,1.67,0,0,1,92.23,75.71Z"/><path class="cls-5" d="M88.11,74V99.54H47.72V73.92l2.65-2.65,3.38-3.38,3.46-3.46,9.24-9.24a2,2,0,0,1,2.86,0L85.39,71.27Z"/><path class="cls-6" d="M71.38,99.54H47.72V73.92l2.65-2.65,3.38-3.38,3.46-3.46,9.24-9.24a2,2,0,0,1,2.86,0L85.39,71.27,88.11,74V99.54"/><path class="cls-7" d="M64.35,86.3h7.14a.6.6,0,0,1,.6.6V99.54a0,0,0,0,1,0,0H63.75a0,0,0,0,1,0,0V86.9A.6.6,0,0,1,64.35,86.3Z"/><rect class="cls-8" x="54.31" y="75.68" width="6.29" height="6.29" rx="0.57"/><rect class="cls-8" x="75.24" y="75.68" width="6.29" height="6.29" rx="0.57"/><rect class="cls-9" x="53.38" y="49.04" width="3.45" height="1.5" rx="0.38"/><rect class="cls-9" x="55.42" y="46.52" width="2.32" height="0.95" rx="0.34"/></g><g id="lower"><rect class="cls-9" x="35.1" y="98.7" width="40.14" height="1.34" rx="0.67"/><rect class="cls-9" x="85.12" y="98.7" width="15.35" height="1.34" rx="0.67"/><rect class="cls-9" x="80.76" y="102.77" width="8.83" height="1.34" rx="0.67"/><rect class="cls-9" x="43.01" y="102.77" width="26.21" height="1.34" rx="0.67"/><rect class="cls-9" x="40.41" y="91.73" width="5.94" height="1.34" rx="0.67" transform="translate(135.78 49.03) rotate(90)"/></g><g id="tree"><rect class="cls-9" x="87.84" y="92" width="12.86" height="1.34" transform="translate(186.95 -1.6) rotate(90)"/><path class="cls-10" d="M90.17,68.64A7.45,7.45,0,0,1,95.44,66a7.22,7.22,0,0,1,5.35,2,7.44,7.44,0,0,1,2,6.12,6,6,0,0,1,4.46,3.13,5.6,5.6,0,0,1-.77,6,5.91,5.91,0,0,1-4.71,1.93A3.93,3.93,0,0,1,94.43,87a5.6,5.6,0,0,1-5.67,1.28,5.68,5.68,0,0,1-3.6-5.55A6.26,6.26,0,0,1,87.84,78a5.11,5.11,0,0,1-2.78-3.44,5,5,0,0,1,1.06-4.14A5.12,5.12,0,0,1,90.17,68.64Z"/></g><g id="outer"><circle class="cls-11" cx="38.62" cy="85.35" r="1.21"/><circle class="cls-11" cx="24.22" cy="88.67" r="1.21"/><circle class="cls-11" cx="36.16" cy="66.07" r="1.21"/><circle class="cls-11" cx="93.27" cy="55.01" r="1.21"/><circle class="cls-11" cx="108.56" cy="66.75" r="1.21"/><circle class="cls-11" cx="102.52" cy="92.76" r="1.21"/><path class="cls-11" d="M31.56,77.1a.29.29,0,0,0-.28.28v.42l-.45-.12a.27.27,0,1,0-.14.53l.43.12-.26.4a.27.27,0,0,0,.08.38.3.3,0,0,0,.15,0,.28.28,0,0,0,.23-.13l.24-.37.26.39a.28.28,0,0,0,.23.12.32.32,0,0,0,.16,0,.28.28,0,0,0,.07-.39L32,78.33l.43-.12a.27.27,0,0,0,.19-.34.28.28,0,0,0-.34-.19l-.45.12v-.42A.28.28,0,0,0,31.56,77.1Z"/><path class="cls-11" d="M35.66,93.41a.27.27,0,0,0-.27.27v.43L34.93,94a.27.27,0,0,0-.33.19.27.27,0,0,0,.19.34l.43.12L35,95a.28.28,0,0,0,.08.38.3.3,0,0,0,.15,0,.28.28,0,0,0,.23-.13l.25-.37.26.39a.27.27,0,0,0,.23.12.3.3,0,0,0,.15,0,.27.27,0,0,0,.07-.38l-.28-.42.43-.11a.27.27,0,1,0-.14-.53l-.45.12v-.43A.28.28,0,0,0,35.66,93.41Z"/><path class="cls-11" d="M90.09,61.31a.27.27,0,0,0-.27.28V62l-.45-.12a.27.27,0,0,0-.34.19.28.28,0,0,0,.19.34l.44.12-.26.4a.27.27,0,0,0,.08.38.27.27,0,0,0,.15,0,.28.28,0,0,0,.23-.13l.24-.37.26.39a.27.27,0,0,0,.38.07.27.27,0,0,0,.08-.38l-.28-.42.43-.11a.28.28,0,0,0,.19-.34.27.27,0,0,0-.34-.19l-.45.12v-.42A.27.27,0,0,0,90.09,61.31Z"/><path class="cls-11" d="M109.25,85.94a.27.27,0,0,0-.28.28v.42l-.45-.12a.28.28,0,0,0-.15.53l.44.12-.26.4a.27.27,0,0,0,.08.38.27.27,0,0,0,.15,0,.28.28,0,0,0,.23-.13l.24-.37.26.39a.27.27,0,0,0,.23.12.21.21,0,0,0,.15-.05.27.27,0,0,0,.08-.38l-.28-.41.43-.12a.28.28,0,0,0-.15-.53l-.45.12v-.42A.27.27,0,0,0,109.25,85.94Z"/></g><g class="cls-12"><path class="cls-13" d="M118.74,22v.3a2.51,2.51,0,0,1-2.51,2.51H113a.73.73,0,0,0-.73.73v1.78a2.51,2.51,0,0,1-2.51,2.51H106a2.51,2.51,0,0,1-2.51-2.51V25.55a.7.7,0,0,0-.7-.7h-8a2.51,2.51,0,0,1-2.51-2.51v-2a.85.85,0,0,0-.85-.85H84A2.51,2.51,0,0,1,81.46,17v-.61A2.51,2.51,0,0,1,84,13.9h18a2.51,2.51,0,0,1,2.51,2.51v2.27a.85.85,0,0,0,.85.85h10.88A2.51,2.51,0,0,1,118.74,22Z"/><rect class="cls-13" x="35.42" y="12.75" width="26.03" height="5.58" rx="2.79"/><path class="cls-13" d="M139.09,39.24h0a2.68,2.68,0,0,1-2.68,2.69H109.76a2.68,2.68,0,0,1-2.69-2.69V37.57a1,1,0,0,0-1-1H91a2.68,2.68,0,0,1-2.69-2.69h0A2.68,2.68,0,0,1,91,31.19h26.65a2.68,2.68,0,0,1,2.68,2.68v2a.67.67,0,0,0,.66.66h15.46A2.68,2.68,0,0,1,139.09,39.24Z"/><path class="cls-13" d="M118.74,62.44h0a2.68,2.68,0,0,1-2.69,2.69H89.4a2.68,2.68,0,0,1-2.68-2.69V60.77a1,1,0,0,0-1-1H70.6a2.68,2.68,0,0,1-2.68-2.69h0a2.68,2.68,0,0,1,2.68-2.68H97.25a2.68,2.68,0,0,1,2.69,2.68v2a.66.66,0,0,0,.66.66h15.45A2.68,2.68,0,0,1,118.74,62.44Z"/><path class="cls-13" d="M28.85,31.7h0a2.69,2.69,0,0,0,2.69,2.69H58.19a2.69,2.69,0,0,0,2.68-2.69V30a1,1,0,0,1,1-1H77a2.69,2.69,0,0,0,2.68-2.69h0A2.68,2.68,0,0,0,77,23.65H50.34a2.68,2.68,0,0,0-2.69,2.68v2A.66.66,0,0,1,47,29H31.54A2.68,2.68,0,0,0,28.85,31.7Z"/><rect class="cls-13" x="80.05" y="42.59" width="20.05" height="5.58" rx="2.79"/><rect class="cls-13" x="35.42" y="51.79" width="20.95" height="5.58" rx="2.79"/><path class="cls-13" d="M71,65.05h0a2.21,2.21,0,0,1-2.21,2.22H60.35a.58.58,0,0,0-.59.59V69.5a2.21,2.21,0,0,1-2.21,2.22H43a2.21,2.21,0,0,1-2.22-2.22v0A2.21,2.21,0,0,1,43,67.27H49.4a.67.67,0,0,0,.68-.68V65.05a2.21,2.21,0,0,1,2.22-2.21H68.82A2.21,2.21,0,0,1,71,65.05Z"/><rect class="cls-13" x="73.7" y="82.73" width="20.05" height="5.58" rx="2.79"/><path class="cls-13" d="M113.86,77.23h0a2.12,2.12,0,0,1-2.12,2.12h-13a2.12,2.12,0,0,1-2.12-2.12V75.68a.57.57,0,0,0-.57-.57H87.43A2.12,2.12,0,0,1,85.31,73h0a2.12,2.12,0,0,1,2.12-2.12h13.8A2.12,2.12,0,0,1,103.35,73v1.69a.44.44,0,0,0,.43.43h8A2.12,2.12,0,0,1,113.86,77.23Z"/></g></g></g></g></g></svg>