<svg xmlns="http://www.w3.org/2000/svg" viewBox="0 0 145.23 113.94"><defs><style>.cls-1,.cls-9{fill:none;}.cls-2{fill:#fdb614;}.cls-3{fill:#f6851f;}.cls-4{fill:#f26222;}.cls-5{fill:#ccebf1;stroke:#fff;stroke-width:2px;}.cls-10,.cls-11,.cls-13,.cls-5,.cls-6,.cls-7,.cls-9{stroke-miterlimit:10;}.cls-6{fill:#e45a33;}.cls-10,.cls-11,.cls-13,.cls-6,.cls-7,.cls-9{stroke:#47494c;}.cls-7{fill:#7e9180;}.cls-8{fill:#c5c3c6;}.cls-10{fill:#f57f20;}.cls-11{fill:#fff;}.cls-12{fill:#47494c;}.cls-13{fill:#8ac640;}</style></defs><g id="Layer_2" data-name="Layer 2"><g id="Layer_1-2" data-name="Layer 1"><g id="partly-cloudy-day"><rect class="cls-1" width="145.23" height="113.94"/><g id="partly-cloudy-day-2" data-name="partly-cloudy-day"><g id="sun"><circle class="cls-2" cx="43.24" cy="39.31" r="36.33"/><circle class="cls-3" cx="43.24" cy="38.86" r="22.34"/><circle class="cls-4" cx="43.24" cy="39.01" r="9.93"/></g><g id="cloud"><path class="cls-5" d="M83.81,53.73a2.09,2.09,0,0,1,.09.27c2.37,7.44-1.94,13.48-9.74,13.48h-22a10.28,10.28,0,0,1-10.38-9.06c0-.32,0-.64,0-1a10.6,10.6,0,0,1,8.27-10.33,11.93,11.93,0,0,1,23.2-.24h0C76.87,46.67,82.12,48.85,83.81,53.73Z"/><path class="cls-5" d="M55.85,71.1l.07.2c1.75,5.51-1.44,10-7.21,10H32.47a7.6,7.6,0,0,1-7.68-6.7q0-.36,0-.72a7.84,7.84,0,0,1,6.12-7.64A8.82,8.82,0,0,1,48,66h0A8.05,8.05,0,0,1,55.85,71.1Z"/></g><g id="house"><path class="cls-6" d="M57.26,53.25v6l-4.83,4.83V53.25a.58.58,0,0,1,.58-.58h3.66A.58.58,0,0,1,57.26,53.25Z"/><path class="cls-7" d="M92.2,75.3h0a1.67,1.67,0,0,1-2.36,0l-1.72-1.72L85.4,70.86l-16-16a2.08,2.08,0,0,0-2.94,0L57.22,64l-3.46,3.46-3.38,3.38-2.65,2.65L45.94,75.3a1.67,1.67,0,0,1-2.36,0h0a1.65,1.65,0,0,1,0-2.36l8.81-8.81,4.83-4.83L65.53,51h0a3.34,3.34,0,0,1,4.72,0l22,21.95A1.67,1.67,0,0,1,92.2,75.3Z"/><path class="cls-8" d="M88.08,73.58V99.13H47.69V73.51l2.65-2.65,3.38-3.38L57.18,64l9.24-9.24a2,2,0,0,1,2.86,0L85.36,70.86Z"/><path class="cls-9" d="M71.35,99.13H47.69V73.51l2.65-2.65,3.38-3.38L57.18,64l9.24-9.24a2,2,0,0,1,2.86,0L85.36,70.86l2.72,2.72V99.13"/><path class="cls-10" d="M64.32,85.89h7.14a.6.6,0,0,1,.6.6V99.13a0,0,0,0,1,0,0H63.72a0,0,0,0,1,0,0V86.49A.6.6,0,0,1,64.32,85.89Z"/><rect class="cls-11" x="54.27" y="75.27" width="6.29" height="6.29" rx="0.57"/><rect class="cls-11" x="75.21" y="75.27" width="6.29" height="6.29" rx="0.57"/><rect class="cls-12" x="53.35" y="48.63" width="3.45" height="1.5" rx="0.38"/><rect class="cls-12" x="55.39" y="46.11" width="2.32" height="0.95" rx="0.34"/></g><g id="lower"><rect class="cls-12" x="35.07" y="98.7" width="40.14" height="1.34" rx="0.67"/><rect class="cls-12" x="85.09" y="98.7" width="15.35" height="1.34" rx="0.67"/><rect class="cls-12" x="80.73" y="102.76" width="8.83" height="1.34" rx="0.67"/><rect class="cls-12" x="42.98" y="102.76" width="26.21" height="1.34" rx="0.67"/><rect class="cls-12" x="40.38" y="91.73" width="5.94" height="1.34" rx="0.67" transform="translate(135.75 49.05) rotate(90)"/></g><g id="tree"><rect class="cls-12" x="87.81" y="91.59" width="12.86" height="1.34" transform="translate(186.51 -1.98) rotate(90)"/><path class="cls-13" d="M90.14,68.24a7.41,7.41,0,0,1,5.27-2.7,7.22,7.22,0,0,1,5.35,2,7.45,7.45,0,0,1,2,6.13,6,6,0,0,1,4.46,3.12,5.6,5.6,0,0,1-.77,6,5.91,5.91,0,0,1-4.71,1.93,3.93,3.93,0,0,1-7.35,1.79,5.61,5.61,0,0,1-5.67,1.29,5.7,5.7,0,0,1-3.6-5.56,6.26,6.26,0,0,1,2.68-4.75A5.11,5.11,0,0,1,85,74.1a4.89,4.89,0,0,1,5.11-5.86Z"/></g><g id="outer"><circle class="cls-2" cx="38.59" cy="84.94" r="1.21"/><circle class="cls-2" cx="24.19" cy="88.26" r="1.21"/><circle class="cls-2" cx="36.13" cy="65.66" r="1.21"/><circle class="cls-2" cx="93.24" cy="54.6" r="1.21"/><circle class="cls-2" cx="108.53" cy="66.34" r="1.21"/><circle class="cls-2" cx="102.49" cy="92.36" r="1.21"/><path class="cls-2" d="M31.53,76.69a.29.29,0,0,0-.28.28v.42l-.45-.12a.27.27,0,1,0-.14.53l.43.12-.26.4a.29.29,0,0,0,.08.39.28.28,0,0,0,.15,0,.26.26,0,0,0,.23-.13l.24-.37.26.39a.28.28,0,0,0,.23.12.32.32,0,0,0,.16,0,.28.28,0,0,0,.07-.39L32,77.92l.43-.12a.27.27,0,0,0,.19-.34.28.28,0,0,0-.34-.19l-.45.12V77A.28.28,0,0,0,31.53,76.69Z"/><path class="cls-2" d="M35.63,93a.27.27,0,0,0-.27.28v.42l-.46-.12a.27.27,0,0,0-.33.19.27.27,0,0,0,.19.34l.43.12-.26.4A.28.28,0,0,0,35,95a.3.3,0,0,0,.15,0,.28.28,0,0,0,.23-.13l.25-.37.26.39a.26.26,0,0,0,.22.12.3.3,0,0,0,.16,0,.27.27,0,0,0,.07-.38l-.28-.42.43-.11a.27.27,0,1,0-.14-.53l-.45.12v-.42A.28.28,0,0,0,35.63,93Z"/><path class="cls-2" d="M90.06,60.9a.27.27,0,0,0-.27.28v.42l-.45-.12a.28.28,0,1,0-.15.53l.44.12-.26.4a.27.27,0,0,0,.08.38.27.27,0,0,0,.15.05.28.28,0,0,0,.23-.13l.24-.37.26.39a.27.27,0,0,0,.23.12.23.23,0,0,0,.15,0,.27.27,0,0,0,.08-.38l-.28-.41.43-.12a.28.28,0,0,0-.15-.53l-.45.12v-.42A.27.27,0,0,0,90.06,60.9Z"/><path class="cls-2" d="M109.22,85.53a.28.28,0,0,0-.28.28v.42l-.45-.12a.28.28,0,0,0-.15.53l.44.12-.26.4a.27.27,0,0,0,.08.38.27.27,0,0,0,.15,0,.28.28,0,0,0,.23-.13l.24-.37.26.39a.27.27,0,0,0,.23.12.26.26,0,0,0,.15,0,.29.29,0,0,0,.08-.39l-.28-.41.43-.12a.28.28,0,0,0-.15-.53l-.45.12v-.42A.28.28,0,0,0,109.22,85.53Z"/></g></g></g></g></g></svg>