<svg xmlns="http://www.w3.org/2000/svg" viewBox="0 0 145.23 113.94"><defs><style>.cls-1,.cls-7{fill:none;}.cls-2,.cls-3{fill:#a3bdc4;}.cls-2{stroke:#f9f9fa;stroke-width:2px;}.cls-11,.cls-2,.cls-4,.cls-5,.cls-7,.cls-8,.cls-9{stroke-miterlimit:10;}.cls-4{fill:#bd4630;}.cls-11,.cls-4,.cls-5,.cls-7,.cls-8,.cls-9{stroke:#47494c;}.cls-5{fill:#657567;}.cls-6{fill:#9d9b9e;}.cls-8{fill:#c86328;}.cls-9{fill:#fec76f;}.cls-10{fill:#47494c;}.cls-11{fill:#6b9d41;}</style></defs><g id="Layer_2" data-name="Layer 2"><g id="Layer_1-2" data-name="Layer 1"><g id="rain"><rect class="cls-1" width="145.23" height="113.94"/><g id="rain-2" data-name="rain"><path class="cls-2" d="M78.84,26.71l.09.27c2.31,7.26-1.89,13.16-9.51,13.16H48a10,10,0,0,1-10.13-8.85c0-.31,0-.63,0-.94A10.34,10.34,0,0,1,45.9,20.27,11.64,11.64,0,0,1,68.54,20h0C72.07,19.83,77.2,22,78.84,26.71Z"/><path class="cls-2" d="M93.63,23.69l.07.21c1.85,5.84-1.52,10.59-7.65,10.59H68.81a8.07,8.07,0,0,1-8.15-7.12,6.34,6.34,0,0,1,0-.76,8.32,8.32,0,0,1,6.5-8.11,9.36,9.36,0,0,1,18.21-.19h0C88.17,18.15,92.3,19.86,93.63,23.69Z"/><path class="cls-2" d="M103.61,37.92c0,.09,0,.15.07.2,1.74,5.49-1.43,10-7.19,10H80.3a7.58,7.58,0,0,1-7.65-6.69,5.53,5.53,0,0,1,0-.71,7.83,7.83,0,0,1,6.11-7.62,8.79,8.79,0,0,1,17.1-.18h0A8,8,0,0,1,103.61,37.92Z"/><path class="cls-2" d="M53.08,47l.07.22C55,53,51.63,57.75,45.5,57.75H28.26a8.07,8.07,0,0,1-8.15-7.11,6.45,6.45,0,0,1,0-.76,8.32,8.32,0,0,1,6.5-8.11,9.36,9.36,0,0,1,18.21-.19h0C47.62,41.41,51.75,43.12,53.08,47Z"/><path class="cls-3" d="M97.38,107.78h0a1.69,1.69,0,0,1-1.69,1.69H75.13A2.17,2.17,0,0,1,73,107.3v-1a.24.24,0,0,0-.24-.24H68.93a2.39,2.39,0,0,1-2.4-2.39v-1.3H37.71a1.84,1.84,0,0,1-1.85-1.84h0a1.85,1.85,0,0,1,1.85-1.85H86.06a1.85,1.85,0,0,1,1.84,1.85h0a1.84,1.84,0,0,1-1.84,1.84H83.19a1.74,1.74,0,0,0-1.74,1.74v.2a1.75,1.75,0,0,0,1.75,1.75H95.69A1.7,1.7,0,0,1,97.38,107.78Z"/><path class="cls-3" d="M63,107.44h0A1.54,1.54,0,0,1,61.4,109H55.73a.22.22,0,0,0-.22.22v.55a1.7,1.7,0,0,1-1.7,1.69H50.35a1.7,1.7,0,0,1-1.7-1.69v-.55a.22.22,0,0,0-.22-.22H44.05a1.54,1.54,0,0,1-1.55-1.55h0a1.55,1.55,0,0,1,1.55-1.55H61.4A1.55,1.55,0,0,1,63,107.44Z"/><g id="house"><path class="cls-4" d="M57.28,53.81v5.7l-4.83,4.58V53.81a.58.58,0,0,1,.59-.55H56.7A.57.57,0,0,1,57.28,53.81Z"/><path class="cls-5" d="M92.22,75.31h0a1.67,1.67,0,0,1-2.36,0l-1.72-1.72-2.72-2.72-16-16a2.06,2.06,0,0,0-2.94,0L57.24,64l-3.46,3.46L50.4,70.87l-2.65,2.65L46,75.31a1.67,1.67,0,0,1-2.36,0h0a1.67,1.67,0,0,1,0-2.36l8.81-8.81,4.83-4.83L65.55,51h0a3.33,3.33,0,0,1,4.72,0l22,22A1.67,1.67,0,0,1,92.22,75.31Z"/><path class="cls-6" d="M88.11,73.59V99.14H47.72V73.52l2.65-2.65,3.38-3.38L57.21,64l9.24-9.24a2,2,0,0,1,2.86,0L85.39,70.87Z"/><path class="cls-7" d="M71.38,99.14H47.72V73.52l2.65-2.65,3.38-3.38L57.21,64l9.24-9.24a2,2,0,0,1,2.86,0L85.39,70.87l2.72,2.72V99.14"/><path class="cls-8" d="M64.34,85.9h7.14a.6.6,0,0,1,.6.6V99.14a0,0,0,0,1,0,0H63.74a0,0,0,0,1,0,0V86.49A.6.6,0,0,1,64.34,85.9Z"/><rect class="cls-9" x="54.3" y="75.28" width="6.29" height="6.29" rx="0.57"/><rect class="cls-9" x="75.24" y="75.28" width="6.29" height="6.29" rx="0.57"/><rect class="cls-10" x="53.37" y="48.64" width="3.45" height="1.5" rx="0.38"/><rect class="cls-10" x="55.42" y="46.12" width="2.32" height="0.95" rx="0.34"/></g><g id="lower"><rect class="cls-10" x="35.1" y="98.7" width="40.14" height="1.34" rx="0.67"/><rect class="cls-10" x="85.11" y="98.7" width="15.35" height="1.34" rx="0.67"/><rect class="cls-10" x="80.75" y="102.77" width="8.83" height="1.34" rx="0.67"/><rect class="cls-10" x="43" y="102.77" width="26.21" height="1.34" rx="0.67"/><rect class="cls-10" x="40.4" y="91.74" width="5.94" height="1.34" rx="0.67" transform="translate(135.78 49.03) rotate(90)"/></g><g id="tree"><rect class="cls-10" x="87.84" y="91.6" width="12.86" height="1.34" transform="translate(186.54 -1.99) rotate(90)"/><path class="cls-11" d="M90.16,68.24a7.48,7.48,0,0,1,5.27-2.7,7.3,7.3,0,0,1,5.36,2,7.47,7.47,0,0,1,2,6.12,6,6,0,0,1,4.46,3.13,5.6,5.6,0,0,1-.78,6,5.93,5.93,0,0,1-4.71,1.93,3.92,3.92,0,0,1-7.34,1.79,5.44,5.44,0,0,1-9.28-4.27,6.34,6.34,0,0,1,2.69-4.76A4.84,4.84,0,0,1,86.12,70,5.13,5.13,0,0,1,90.16,68.24Z"/></g><path class="cls-3" d="M33.47,86.76l2,9.39.29,1.34c.1.47.82.27.72-.2l-2-9.39-.28-1.34c-.1-.47-.83-.27-.73.2Z"/><path class="cls-3" d="M32.4,81.66l.52,2.49.07.35a.38.38,0,0,0,.73-.2l-.53-2.48-.07-.36a.39.39,0,0,0-.46-.26.37.37,0,0,0-.26.46Z"/><path class="cls-3" d="M30.51,72.72l1.23,5.85.18.83c.1.47.82.27.72-.2L31.4,73.35l-.17-.83c-.1-.47-.82-.27-.72.2Z"/><path class="cls-3" d="M28.45,63l1.32,6.22.19.89c.1.47.82.27.72-.2l-1.32-6.23-.18-.88c-.1-.48-.83-.28-.73.2Z"/><path class="cls-3" d="M37.88,91.29l.44,2.06.06.3a.38.38,0,0,0,.46.26.37.37,0,0,0,.26-.46l-.43-2.07-.07-.29a.37.37,0,0,0-.46-.27.4.4,0,0,0-.26.47Z"/><path class="cls-3" d="M36,82.38l1.15,5.46.17.78c.1.47.82.27.72-.2L36.89,83l-.17-.78c-.1-.47-.82-.27-.72.2Z"/><path class="cls-3" d="M34.71,76.28l.44,2.06.06.3a.38.38,0,0,0,.46.26.38.38,0,0,0,.26-.46l-.43-2.06-.07-.29a.37.37,0,0,0-.46-.27.39.39,0,0,0-.26.46Z"/><path class="cls-3" d="M32.68,66.65l1.27,6,.18.86c.1.47.82.27.72-.2l-1.27-6-.18-.86c-.1-.47-.82-.27-.72.2Z"/><path class="cls-3" d="M31.1,59.17l.93,4.4.13.62c.1.47.82.27.72-.2L32,59.6,31.82,59c-.1-.47-.82-.27-.72.2Z"/><path class="cls-3" d="M61,48.54l.85,4,.12.57c.1.48.82.28.73-.19l-.86-4-.12-.57c-.1-.47-.82-.27-.72.2Z"/><path class="cls-3" d="M59.74,42.67l.7,3.31.1.47c.1.47.82.27.72-.2l-.7-3.31-.1-.47c-.1-.47-.82-.27-.72.2Z"/><path class="cls-3" d="M47.39,62.14l.88,4.14.12.58c.1.48.82.28.72-.19l-.87-4.14-.12-.59c-.1-.47-.83-.27-.73.2Z"/><path class="cls-3" d="M46.66,58.65,47,60.26l0,.23a.38.38,0,0,0,.73-.2l-.34-1.61,0-.23a.37.37,0,1,0-.72.2Z"/><path class="cls-3" d="M82.15,55.9l1.47,7,.21,1c.1.47.83.27.73-.2l-1.48-7-.21-1c-.1-.47-.82-.27-.72.2Z"/><path class="cls-3" d="M81,50.24l.68,3.2.1.45a.38.38,0,0,0,.46.27.4.4,0,0,0,.26-.47l-.68-3.2L81.68,50a.39.39,0,0,0-.46-.27.4.4,0,0,0-.27.47Z"/><path class="cls-3" d="M71.4,49.2,72,51.9l.08.39a.37.37,0,1,0,.72-.2l-.57-2.71L72.12,49a.38.38,0,0,0-.46-.26.37.37,0,0,0-.26.46Z"/><path class="cls-3" d="M70.35,44.23l.67,3.2.1.46a.37.37,0,1,0,.72-.2l-.67-3.2-.1-.46a.37.37,0,0,0-.46-.26.37.37,0,0,0-.26.46Z"/><path class="cls-3" d="M98.71,64.19,99,65.46l0,.18a.38.38,0,0,0,.46.27.4.4,0,0,0,.27-.47l-.27-1.27,0-.18a.38.38,0,0,0-.46-.26.38.38,0,0,0-.26.46Z"/><path class="cls-3" d="M96.74,54.88l1.34,6.36.19.9c.1.47.83.28.73-.2l-1.35-6.35-.19-.91c-.1-.47-.82-.27-.72.2Z"/><path class="cls-3" d="M95.6,49.49l.63,3,.09.42a.37.37,0,1,0,.72-.2l-.63-3-.09-.42a.38.38,0,0,0-.46-.27.4.4,0,0,0-.26.47Z"/><path class="cls-3" d="M94.39,62.58l.35,1.68.05.24a.38.38,0,0,0,.46.27.4.4,0,0,0,.27-.47l-.36-1.68,0-.24a.38.38,0,0,0-.46-.26.38.38,0,0,0-.26.46Z"/><path class="cls-3" d="M93.47,58.24,94,60.85l.08.38a.37.37,0,0,0,.72-.2l-.55-2.62L94.19,58a.37.37,0,0,0-.46-.26.38.38,0,0,0-.26.46Z"/><path class="cls-3" d="M92,51.09l.9,4.28L93,56c.1.47.82.27.73-.2l-.91-4.28-.13-.61c-.1-.47-.82-.27-.72.2Z"/><path class="cls-3" d="M44,68.86l.43,2,.06.28a.37.37,0,0,0,.46.26.38.38,0,0,0,.26-.46l-.42-2-.07-.29a.37.37,0,0,0-.46-.26.39.39,0,0,0-.26.46Z"/><path class="cls-3" d="M43,64.42l.45,2.14.07.3a.37.37,0,1,0,.72-.19l-.45-2.14-.06-.31a.39.39,0,0,0-.46-.26.38.38,0,0,0-.27.46Z"/><path class="cls-3" d="M63.22,50.24l.31,1.45,0,.2a.38.38,0,0,0,.46.26.37.37,0,0,0,.26-.46L64,50.24l-.05-.2a.37.37,0,0,0-.46-.27.4.4,0,0,0-.26.47Z"/><path class="cls-3" d="M62.09,44.9l.71,3.36.1.48c.1.47.83.27.73-.2l-.71-3.36-.1-.48c-.1-.47-.83-.27-.73.2Z"/><path class="cls-3" d="M56.58,50.24l.49,2.32.07.33a.38.38,0,1,0,.73-.2l-.49-2.32L57.31,50a.38.38,0,1,0-.73.2Z"/><path class="cls-3" d="M89.81,63.34l.61,2.9.09.41a.37.37,0,0,0,.46.26.38.38,0,0,0,.26-.46l-.61-2.9-.09-.41a.37.37,0,0,0-.46-.26.39.39,0,0,0-.26.46Z"/><path class="cls-3" d="M88.62,57.72,89.31,61l.1.46a.37.37,0,0,0,.46.26.38.38,0,0,0,.26-.46L89.44,58l-.09-.47a.38.38,0,0,0-.73.2Z"/><path class="cls-3" d="M32.12,94.53a.38.38,0,0,0,0-.75.38.38,0,0,0,0,.75Z"/><path class="cls-3" d="M33.33,96.92a.38.38,0,0,0,0-.75.38.38,0,0,0,0,.75Z"/><path class="cls-3" d="M34,95a.38.38,0,0,0,0-.75A.38.38,0,0,0,34,95Z"/><path class="cls-3" d="M34.76,98.72a.38.38,0,0,0,0-.75.38.38,0,0,0,0,.75Z"/><path class="cls-3" d="M37.81,96.55a.38.38,0,0,0,0-.75.38.38,0,0,0,0,.75Z"/><path class="cls-3" d="M39.73,95.26v-.48a.44.44,0,0,0-.11-.27.33.33,0,0,0-.13-.07.17.17,0,0,0-.14,0,.34.34,0,0,0-.26.1.4.4,0,0,0-.11.27v.48a.38.38,0,0,0,.11.26.25.25,0,0,0,.12.08.32.32,0,0,0,.14,0,.35.35,0,0,0,.27-.11.41.41,0,0,0,.11-.26Z"/><path class="cls-3" d="M40.19,93.38,40.6,93a.25.25,0,0,0,.08-.12.37.37,0,0,0,0-.15.32.32,0,0,0,0-.14.25.25,0,0,0-.08-.12.36.36,0,0,0-.26-.11h-.1a.37.37,0,0,0-.17.1l-.41.36a.25.25,0,0,0-.08.12.35.35,0,0,0,0,.14.37.37,0,0,0,0,.15.25.25,0,0,0,.08.12.39.39,0,0,0,.27.11H40a.39.39,0,0,0,.16-.1Z"/><path class="cls-3" d="M42.44,71.07l-.55-.25a.24.24,0,0,0-.14,0,.26.26,0,0,0-.15,0,.34.34,0,0,0-.22.17.37.37,0,0,0,0,.29.34.34,0,0,0,.17.22l.55.26a.34.34,0,0,0,.14,0,.37.37,0,0,0,.37-.18.38.38,0,0,0,0-.29.36.36,0,0,0-.17-.23Z"/><path class="cls-3" d="M43.14,70.15v-.07a.37.37,0,0,0,0-.15.37.37,0,0,0-.2-.2.37.37,0,0,0-.15,0h-.1a.39.39,0,0,0-.16.1l-.06.08a.38.38,0,0,0,0,.19v.07a.32.32,0,0,0,0,.14.25.25,0,0,0,.08.12.2.2,0,0,0,.12.08.22.22,0,0,0,.14,0h.1a.37.37,0,0,0,.17-.1l.06-.07a.41.41,0,0,0,0-.19Z"/><path class="cls-3" d="M46.11,69.16v-.08a.32.32,0,0,0,0-.14.2.2,0,0,0-.08-.12.25.25,0,0,0-.12-.08.32.32,0,0,0-.14,0h-.1a.37.37,0,0,0-.17.1l-.06.07a.45.45,0,0,0,0,.19v.08a.23.23,0,0,0,0,.14.24.24,0,0,0,.07.12.28.28,0,0,0,.12.08.4.4,0,0,0,.15,0h.1a.34.34,0,0,0,.16-.1l.06-.07a.32.32,0,0,0,0-.19Z"/><path class="cls-3" d="M46.14,68.38l.15-.14a.25.25,0,0,0,.08-.12.32.32,0,0,0,0-.14.37.37,0,0,0,0-.15.25.25,0,0,0-.08-.12l-.08-.06A.41.41,0,0,0,46,67.6h-.1a.39.39,0,0,0-.16.1l-.15.14a.35.35,0,0,0-.08.13.34.34,0,0,0,0,.28.25.25,0,0,0,.08.12l.08.06a.29.29,0,0,0,.18,0H46a.37.37,0,0,0,.17-.1Z"/><path class="cls-3" d="M43.5,71.77a.38.38,0,0,0,0-.75.38.38,0,0,0,0,.75Z"/><path class="cls-3" d="M47.9,67.55a.38.38,0,0,0,0-.75.38.38,0,0,0,0,.75Z"/><path class="cls-3" d="M47.32,66.45a.38.38,0,0,0,0-.75.38.38,0,0,0,0,.75Z"/><path class="cls-3" d="M47.13,65.09a.38.38,0,0,0,0-.75.38.38,0,0,0,0,.75Z"/><path class="cls-3" d="M49.85,64.91a.38.38,0,0,0,0-.75.38.38,0,0,0,0,.75Z"/><path class="cls-3" d="M49.85,63.59a.38.38,0,0,0,0-.75.38.38,0,0,0,0,.75Z"/><path class="cls-3" d="M51.13,62.78a.38.38,0,0,0,0-.75.38.38,0,0,0,0,.75Z"/><path class="cls-3" d="M61.12,53.82a.38.38,0,0,0,0-.75.38.38,0,0,0,0,.75Z"/><path class="cls-3" d="M60.24,51.51a.38.38,0,0,0,0-.75.38.38,0,0,0,0,.75Z"/><path class="cls-3" d="M58.88,50a.38.38,0,0,0,0-.75.38.38,0,0,0,0,.75Z"/><path class="cls-3" d="M64.61,50.92a.38.38,0,0,0,0-.75.38.38,0,0,0,0,.75Z"/><path class="cls-3" d="M64.83,49.42a.38.38,0,0,0,0-.75.38.38,0,0,0,0,.75Z"/><path class="cls-3" d="M67.07,48.43a.38.38,0,0,0,0-.75.38.38,0,0,0,0,.75Z"/><path class="cls-3" d="M68.09,49.38a.38.38,0,0,0,0-.75.38.38,0,0,0,0,.75Z"/><path class="cls-3" d="M69.3,48.35a.38.38,0,0,0,0-.75.38.38,0,0,0,0,.75Z"/><path class="cls-3" d="M73.75,52.24a.38.38,0,0,0,0-.75.38.38,0,0,0,0,.75Z"/><path class="cls-3" d="M75.32,51.44a.38.38,0,0,0,0-.75.38.38,0,0,0,0,.75Z"/><path class="cls-3" d="M75.29,49.86a.38.38,0,0,0,0-.75.38.38,0,0,0,0,.75Z"/><path class="cls-3" d="M85.68,62.81a.38.38,0,0,0,0-.75.38.38,0,0,0,0,.75Z"/><path class="cls-3" d="M85.82,61.16a.38.38,0,0,0,0-.75.38.38,0,0,0,0,.75Z"/><path class="cls-3" d="M91.73,65.68a.38.38,0,0,0,0-.75.38.38,0,0,0,0,.75Z"/><path class="cls-3" d="M88.87,66.6a.38.38,0,0,0,0-.75.38.38,0,0,0,0,.75Z"/><path class="cls-3" d="M89.86,67.18a.38.38,0,0,0,0-.75.38.38,0,0,0,0,.75Z"/><path class="cls-3" d="M100.32,66.27a.38.38,0,0,0,0-.75.38.38,0,0,0,0,.75Z"/><path class="cls-3" d="M100.21,65a.38.38,0,0,0,0-.75.38.38,0,0,0,0,.75Z"/><path class="cls-3" d="M98.19,65a.38.38,0,0,0,0-.75.38.38,0,0,0,0,.75Z"/><path class="cls-3" d="M77.25,56.47a.38.38,0,0,0,0-.75.38.38,0,0,0,0,.75Z"/><path class="cls-3" d="M78.47,58.18a.38.38,0,0,0,0-.75.38.38,0,0,0,0,.75Z"/><path class="cls-3" d="M75.81,54.9a.38.38,0,0,0,0-.75.38.38,0,0,0,0,.75Z"/><path class="cls-3" d="M39.47,98.2a.38.38,0,0,0,0-.75.38.38,0,0,0,0,.75Z"/><path class="cls-3" d="M41,97.69a.38.38,0,0,0,0-.75.38.38,0,0,0,0,.75Z"/><path class="cls-3" d="M40.72,96.39a.38.38,0,0,0,0-.75.38.38,0,0,0,0,.75Z"/><path class="cls-3" d="M39.33,97a.38.38,0,0,0,0-.75.38.38,0,0,0,0,.75Z"/></g></g></g></g></svg>