<svg xmlns="http://www.w3.org/2000/svg" viewBox="0 0 145.23 113.94"><defs><style>.cls-1,.cls-7{fill:none;}.cls-2{fill:#fff;}.cls-3{fill:#cce5f1;stroke:#f9f9fa;stroke-width:2px;}.cls-11,.cls-3,.cls-4,.cls-5,.cls-7,.cls-8,.cls-9{stroke-miterlimit:10;}.cls-4{fill:#c15256;}.cls-11,.cls-4,.cls-5,.cls-7,.cls-8,.cls-9{stroke:#47494c;}.cls-5{fill:#7f8d83;}.cls-6{fill:#c4c3c6;}.cls-8{fill:#ca6c4a;}.cls-9{fill:#fec76f;}.cls-10{fill:#47494c;}.cls-11{fill:#7bab5b;}</style></defs><g id="Layer_2" data-name="Layer 2"><g id="Layer_1-2" data-name="Layer 1"><g id="sleet"><rect class="cls-1" width="145.23" height="113.94"/><g id="sleet-2" data-name="sleet"><path class="cls-2" d="M96.19,107.78h0a1.68,1.68,0,0,1-1.69,1.69H73.94a2.18,2.18,0,0,1-2.18-2.17v-1a.24.24,0,0,0-.24-.25H67.74a2.4,2.4,0,0,1-2.4-2.39v-1.3H36.52a1.84,1.84,0,0,1-1.85-1.84h0a1.85,1.85,0,0,1,1.85-1.85H84.87a1.84,1.84,0,0,1,1.84,1.85h0a1.84,1.84,0,0,1-1.84,1.84H82a1.75,1.75,0,0,0-1.75,1.75v.2A1.75,1.75,0,0,0,82,106.08H94.5A1.69,1.69,0,0,1,96.19,107.78Z"/><path class="cls-2" d="M61.76,107.44h0A1.54,1.54,0,0,1,60.21,109H54.54a.22.22,0,0,0-.22.22v.55a1.69,1.69,0,0,1-1.69,1.69H49.16a1.7,1.7,0,0,1-1.7-1.69v-.55a.21.21,0,0,0-.21-.22H42.86a1.55,1.55,0,0,1-1.55-1.55h0a1.56,1.56,0,0,1,1.55-1.55H60.21A1.55,1.55,0,0,1,61.76,107.44Z"/><path class="cls-3" d="M78.85,26.71c0,.12.07.2.09.27,2.3,7.26-1.89,13.16-9.51,13.16H48a10,10,0,0,1-10.12-8.85c0-.31-.05-.62-.05-.94a10.35,10.35,0,0,1,8.08-10.08A11.63,11.63,0,0,1,68.54,20h.06C72.08,19.83,77.2,22,78.85,26.71Z"/><path class="cls-3" d="M93.63,23.69c0,.09.06.16.08.21,1.85,5.85-1.53,10.59-7.66,10.59H68.81a8.08,8.08,0,0,1-8.15-7.12c0-.25,0-.5,0-.76a8.32,8.32,0,0,1,6.5-8.11,9.36,9.36,0,0,1,18.21-.19h0C88.18,18.15,92.31,19.86,93.63,23.69Z"/><path class="cls-3" d="M103.62,37.92l.07.2c1.74,5.49-1.43,10-7.19,10H80.31a7.59,7.59,0,0,1-7.66-6.69c0-.23,0-.47,0-.71a7.82,7.82,0,0,1,6.1-7.62,8.8,8.8,0,0,1,17.11-.18h0A8,8,0,0,1,103.62,37.92Z"/><path class="cls-3" d="M53.09,47l.07.22C55,53,51.64,57.75,45.5,57.75H28.26a8.07,8.07,0,0,1-8.14-7.11,6.45,6.45,0,0,1,0-.76,8.32,8.32,0,0,1,6.5-8.11,9.36,9.36,0,0,1,18.21-.19h0C47.63,41.41,51.76,43.13,53.09,47Z"/><g id="house"><path class="cls-2" d="M95,75.82c-.1,0-.21-.5-.77-.88a4.33,4.33,0,0,0-.91-.35,2.37,2.37,0,0,1-1.15-1.33l-2-.52-3-3L69.66,52.32a2.26,2.26,0,0,0-3.21,0l-10,10L52.67,66.1,49,69.78,46.1,72.66l-2.38,1.71a1.47,1.47,0,0,1-.57,1.16c-.28.17-.49.06-.88.16-.86.21-1.16,1-1.35,1s-.16-1.06.67-4.62l9.59-9.59,5.26-5.26,9-9h0a3.63,3.63,0,0,1,5.14,0L94.52,72C95.05,75,95.08,75.79,95,75.82Z"/><path class="cls-4" d="M57.29,53.81v5.7l-4.83,4.58V53.81a.57.57,0,0,1,.59-.55h3.66A.57.57,0,0,1,57.29,53.81Z"/><path class="cls-5" d="M92.23,75.31h0a1.67,1.67,0,0,1-2.36,0l-1.72-1.72-2.72-2.72-16-16a2.06,2.06,0,0,0-2.94,0L57.25,64l-3.46,3.46-3.38,3.38-2.65,2.65L46,75.31a1.67,1.67,0,0,1-2.36,0h0a1.67,1.67,0,0,1,0-2.36l8.81-8.81,4.83-4.83L65.56,51h0a3.33,3.33,0,0,1,4.72,0l22,22A1.67,1.67,0,0,1,92.23,75.31Z"/><path class="cls-6" d="M88.12,73.59V99.14H47.73V73.52l2.65-2.65,3.38-3.38L57.22,64l9.23-9.24a2,2,0,0,1,2.87,0L85.4,70.87Z"/><path class="cls-7" d="M71.38,99.14H47.73V73.52l2.65-2.65,3.38-3.38L57.22,64l9.23-9.24a2,2,0,0,1,2.87,0L85.4,70.87l2.72,2.72V99.14"/><path class="cls-8" d="M64.35,85.9h7.14a.6.6,0,0,1,.6.6V99.14a0,0,0,0,1,0,0H63.75a0,0,0,0,1,0,0V86.5A.6.6,0,0,1,64.35,85.9Z"/><rect class="cls-9" x="54.31" y="75.28" width="6.29" height="6.29" rx="0.57"/><rect class="cls-9" x="75.25" y="75.28" width="6.29" height="6.29" rx="0.57"/><rect class="cls-10" x="53.38" y="48.64" width="3.45" height="1.5" rx="0.38"/><rect class="cls-10" x="55.43" y="46.12" width="2.32" height="0.95" rx="0.34"/></g><g id="lower"><rect class="cls-10" x="35.11" y="98.7" width="40.14" height="1.34" rx="0.67"/><rect class="cls-10" x="85.12" y="98.7" width="15.35" height="1.34" rx="0.67"/><rect class="cls-10" x="80.76" y="102.77" width="8.83" height="1.34" rx="0.67"/><rect class="cls-10" x="43.01" y="102.77" width="26.21" height="1.34" rx="0.67"/><rect class="cls-10" x="40.41" y="91.74" width="5.94" height="1.34" rx="0.67" transform="translate(135.79 49.02) rotate(90)"/></g><g id="tree"><rect class="cls-10" x="87.84" y="91.6" width="12.86" height="1.34" transform="translate(186.55 -2) rotate(90)"/><path class="cls-11" d="M90.17,68.24a7.48,7.48,0,0,1,5.27-2.7,7.3,7.3,0,0,1,5.36,2,7.47,7.47,0,0,1,2,6.12,6,6,0,0,1,4.45,3.13,5.58,5.58,0,0,1-.77,6,5.9,5.9,0,0,1-4.71,1.93,3.92,3.92,0,0,1-7.35,1.79,5.6,5.6,0,0,1-5.67,1.28,5.69,5.69,0,0,1-3.6-5.55,6.34,6.34,0,0,1,2.69-4.76A4.85,4.85,0,0,1,86.12,70,5.16,5.16,0,0,1,90.17,68.24Z"/></g></g></g></g></g></svg>