<svg xmlns="http://www.w3.org/2000/svg" viewBox="0 0 145.23 113.94"><defs><style>.cls-1,.cls-7{fill:none;}.cls-2{fill:#fff;}.cls-3{fill:#cce5f1;stroke:#f9f9fa;stroke-width:2px;}.cls-11,.cls-3,.cls-4,.cls-5,.cls-7,.cls-8,.cls-9{stroke-miterlimit:10;}.cls-4{fill:#c15256;}.cls-11,.cls-4,.cls-5,.cls-7,.cls-8,.cls-9{stroke:#47494c;}.cls-5{fill:#7f8d83;}.cls-6{fill:#c4c3c6;}.cls-8{fill:#ca6c4a;}.cls-9{fill:#fec76f;}.cls-10{fill:#47494c;}.cls-11{fill:#7bab5b;}</style></defs><g id="Layer_2" data-name="Layer 2"><g id="Layer_1-2" data-name="Layer 1"><g id="snow"><rect class="cls-1" width="145.23" height="113.94"/><g id="snow-2" data-name="snow"><path class="cls-2" d="M96.19,107.78h0a1.69,1.69,0,0,1-1.69,1.69H73.94a2.18,2.18,0,0,1-2.18-2.17v-1a.25.25,0,0,0-.24-.25H67.74a2.4,2.4,0,0,1-2.4-2.39v-1.3H36.52a1.84,1.84,0,0,1-1.85-1.84h0a1.85,1.85,0,0,1,1.85-1.85H84.87a1.84,1.84,0,0,1,1.84,1.85h0a1.84,1.84,0,0,1-1.84,1.84H82a1.74,1.74,0,0,0-1.74,1.75v.2A1.74,1.74,0,0,0,82,106.08H94.5A1.7,1.7,0,0,1,96.19,107.78Z"/><path class="cls-2" d="M61.76,107.44h0A1.54,1.54,0,0,1,60.21,109H54.54a.22.22,0,0,0-.22.22v.55a1.7,1.7,0,0,1-1.7,1.69H49.16a1.7,1.7,0,0,1-1.7-1.69v-.55a.22.22,0,0,0-.21-.22H42.86a1.55,1.55,0,0,1-1.55-1.55h0a1.56,1.56,0,0,1,1.55-1.55H60.21A1.55,1.55,0,0,1,61.76,107.44Z"/><path class="cls-3" d="M78.85,26.72c0,.12.06.19.09.26,2.3,7.26-1.89,13.16-9.51,13.16H48a10,10,0,0,1-10.13-8.85c0-.31,0-.62,0-.94A10.35,10.35,0,0,1,45.9,20.27,11.64,11.64,0,0,1,68.54,20h0C72.07,19.83,77.2,22,78.85,26.72Z"/><path class="cls-3" d="M93.63,23.69c0,.09.05.16.07.21,1.86,5.85-1.52,10.59-7.65,10.59H68.81a8.08,8.08,0,0,1-8.15-7.12c0-.25,0-.5,0-.76a8.32,8.32,0,0,1,6.49-8.11,9.37,9.37,0,0,1,18.22-.19h0C88.18,18.15,92.31,19.86,93.63,23.69Z"/><path class="cls-3" d="M103.62,37.92l.07.2c1.74,5.49-1.43,10-7.19,10H80.31a7.59,7.59,0,0,1-7.66-6.69c0-.23,0-.47,0-.71a7.82,7.82,0,0,1,6.1-7.62,8.8,8.8,0,0,1,17.11-.18h0A8,8,0,0,1,103.62,37.92Z"/><path class="cls-3" d="M53.08,47a.85.85,0,0,1,.07.21C55,53,51.63,57.75,45.5,57.75H28.26a8.08,8.08,0,0,1-8.15-7.11c0-.25,0-.51,0-.76a8.32,8.32,0,0,1,6.49-8.11,9.37,9.37,0,0,1,18.22-.19h0C47.63,41.42,51.76,43.13,53.08,47Z"/><g id="house"><path class="cls-2" d="M95,75.82c-.1,0-.21-.5-.77-.88a5.25,5.25,0,0,0-.91-.35,2.37,2.37,0,0,1-1.15-1.33l-2-.52-3-3L69.65,52.32a2.25,2.25,0,0,0-3.2,0l-10,10L52.67,66.1,49,69.78,46.1,72.66l-2.38,1.71a1.5,1.5,0,0,1-.57,1.16c-.29.17-.49.06-.89.16-.86.21-1.15,1-1.34,1s-.16-1.06.66-4.62l9.6-9.59,5.25-5.26,9.05-9h0a3.63,3.63,0,0,1,5.14,0L94.52,72C95,75,95.08,75.79,95,75.82Z"/><path class="cls-4" d="M57.29,53.81v5.7l-4.83,4.58V53.81a.57.57,0,0,1,.58-.55H56.7A.57.57,0,0,1,57.29,53.81Z"/><path class="cls-5" d="M92.23,75.31h0a1.67,1.67,0,0,1-2.36,0l-1.72-1.72-2.72-2.72-16-16a2.06,2.06,0,0,0-2.94,0L57.25,64l-3.46,3.46-3.38,3.38-2.65,2.65L46,75.31a1.67,1.67,0,0,1-2.36,0h0a1.67,1.67,0,0,1,0-2.36l8.81-8.81,4.83-4.83L65.56,51h0a3.33,3.33,0,0,1,4.72,0l22,22A1.67,1.67,0,0,1,92.23,75.31Z"/><path class="cls-6" d="M88.11,73.59V99.14H47.72V73.52l2.65-2.65,3.38-3.38L57.21,64l9.24-9.24a2,2,0,0,1,2.86,0L85.39,70.87Z"/><path class="cls-7" d="M71.38,99.14H47.72V73.52l2.65-2.65,3.38-3.38L57.21,64l9.24-9.24a2,2,0,0,1,2.86,0L85.39,70.87l2.72,2.72V99.14"/><path class="cls-8" d="M64.35,85.9h7.14a.6.6,0,0,1,.6.6V99.14a0,0,0,0,1,0,0H63.75a0,0,0,0,1,0,0V86.5A.6.6,0,0,1,64.35,85.9Z"/><rect class="cls-9" x="54.31" y="75.28" width="6.29" height="6.29" rx="0.57"/><rect class="cls-9" x="75.24" y="75.28" width="6.29" height="6.29" rx="0.57"/><rect class="cls-10" x="53.38" y="48.64" width="3.45" height="1.5" rx="0.38"/><rect class="cls-10" x="55.43" y="46.12" width="2.32" height="0.95" rx="0.34"/></g><g id="lower"><rect class="cls-10" x="35.11" y="98.7" width="40.14" height="1.34" rx="0.67"/><rect class="cls-10" x="85.12" y="98.7" width="15.35" height="1.34" rx="0.67"/><rect class="cls-10" x="80.76" y="102.77" width="8.83" height="1.34" rx="0.67"/><rect class="cls-10" x="43.01" y="102.77" width="26.21" height="1.34" rx="0.67"/><rect class="cls-10" x="40.41" y="91.74" width="5.94" height="1.34" rx="0.67" transform="translate(135.79 49.03) rotate(90)"/></g><g id="tree"><rect class="cls-10" x="87.84" y="91.6" width="12.86" height="1.34" transform="translate(186.55 -2) rotate(90)"/><path class="cls-11" d="M90.17,68.24a7.48,7.48,0,0,1,5.27-2.7,7.29,7.29,0,0,1,5.35,2,7.46,7.46,0,0,1,2,6.12,6,6,0,0,1,4.45,3.13,5.6,5.6,0,0,1-.77,6,5.9,5.9,0,0,1-4.71,1.93,3.93,3.93,0,0,1-7.35,1.79,5.6,5.6,0,0,1-5.67,1.28,5.68,5.68,0,0,1-3.6-5.55,6.31,6.31,0,0,1,2.68-4.76A4.84,4.84,0,0,1,86.12,70,5.12,5.12,0,0,1,90.17,68.24Z"/></g><path class="cls-2" d="M28.19,59.1a.27.27,0,0,0-.27.28v.42l-.45-.12a.27.27,0,0,0-.34.19.28.28,0,0,0,.19.34l.44.12-.27.4a.28.28,0,0,0,.09.38.25.25,0,0,0,.15,0A.29.29,0,0,0,28,61l.24-.37.26.39a.27.27,0,0,0,.23.12.3.3,0,0,0,.15-.05.27.27,0,0,0,.08-.38l-.28-.41.42-.12a.28.28,0,0,0,.2-.34.27.27,0,0,0-.34-.19l-.45.12v-.42A.27.27,0,0,0,28.19,59.1Z"/><path class="cls-2" d="M28.52,61.87a.28.28,0,0,0-.28.28v.42l-.45-.12a.27.27,0,1,0-.14.53l.43.12-.26.4a.27.27,0,0,0,.08.38.27.27,0,0,0,.15,0,.28.28,0,0,0,.23-.13l.24-.37.26.39a.27.27,0,0,0,.23.12.26.26,0,0,0,.15,0,.29.29,0,0,0,.08-.39L29,63.1l.43-.12a.28.28,0,1,0-.15-.53l-.45.12v-.42A.28.28,0,0,0,28.52,61.87Z"/><path class="cls-2" d="M36.76,86.5a.28.28,0,0,0-.28.27v.43L36,87.08a.27.27,0,0,0-.34.19.28.28,0,0,0,.2.34l.43.12-.26.4a.27.27,0,0,0,.08.38.3.3,0,0,0,.15,0,.28.28,0,0,0,.23-.13l.24-.37.26.39a.28.28,0,0,0,.23.12.27.27,0,0,0,.15,0,.27.27,0,0,0,.08-.38l-.28-.42.43-.11a.28.28,0,0,0,.19-.34.27.27,0,0,0-.34-.19L37,87.2v-.43A.27.27,0,0,0,36.76,86.5Z"/><path class="cls-2" d="M31.88,86.5a.27.27,0,0,0-.27.27v.43l-.45-.12a.27.27,0,0,0-.34.19.28.28,0,0,0,.19.34l.44.12-.27.4a.28.28,0,0,0,.08.38.3.3,0,0,0,.15,0,.31.31,0,0,0,.24-.13l.24-.37.26.39a.27.27,0,0,0,.23.12.3.3,0,0,0,.15,0,.27.27,0,0,0,.08-.38l-.28-.42.42-.11a.28.28,0,0,0,.2-.34.27.27,0,0,0-.34-.19l-.45.12v-.43A.28.28,0,0,0,31.88,86.5Z"/><path class="cls-2" d="M37.83,90.48a.28.28,0,0,0-.27.28v.42l-.46-.12a.27.27,0,0,0-.33.2.27.27,0,0,0,.19.33l.43.12-.26.41a.29.29,0,0,0,.08.38.28.28,0,0,0,.15,0,.27.27,0,0,0,.23-.12l.25-.38.26.39a.27.27,0,0,0,.23.12.28.28,0,0,0,.15,0,.27.27,0,0,0,.07-.38l-.28-.42.43-.12a.27.27,0,0,0,.2-.33.28.28,0,0,0-.34-.2l-.45.12v-.42A.29.29,0,0,0,37.83,90.48Z"/><path class="cls-2" d="M43,84.07a.28.28,0,0,0-.28.28v.42l-.45-.12a.26.26,0,0,0-.33.19.27.27,0,0,0,.19.34l.43.12-.26.4a.27.27,0,0,0,.08.38.3.3,0,0,0,.15,0,.28.28,0,0,0,.23-.13l.24-.37.26.39a.28.28,0,0,0,.23.12.24.24,0,0,0,.16,0,.27.27,0,0,0,.07-.38l-.28-.41.43-.12a.27.27,0,0,0-.14-.53l-.45.12v-.42A.28.28,0,0,0,43,84.07Z"/><path class="cls-2" d="M37.83,82.6a.27.27,0,0,0-.27.28v.42l-.46-.12a.27.27,0,0,0-.14.53l.43.12-.26.4a.28.28,0,0,0,.08.38.3.3,0,0,0,.15,0,.28.28,0,0,0,.23-.13l.25-.37.26.39a.27.27,0,0,0,.23.12.23.23,0,0,0,.15,0,.26.26,0,0,0,.07-.38l-.28-.41.43-.12a.27.27,0,1,0-.14-.53l-.45.12v-.42A.28.28,0,0,0,37.83,82.6Z"/><path class="cls-2" d="M29.59,75.28a.28.28,0,0,0-.28.28V76l-.45-.12a.27.27,0,0,0-.14.53l.43.12-.26.4a.27.27,0,0,0,.08.38.3.3,0,0,0,.15,0,.28.28,0,0,0,.23-.13l.24-.37.27.39a.26.26,0,0,0,.22.12.24.24,0,0,0,.16,0,.27.27,0,0,0,.07-.38L30,76.51l.43-.12a.27.27,0,0,0,.19-.34.27.27,0,0,0-.33-.19l-.45.12v-.42A.28.28,0,0,0,29.59,75.28Z"/><path class="cls-2" d="M33.51,80.81a.29.29,0,0,0-.28.28v.42l-.45-.12a.27.27,0,1,0-.14.53l.43.12-.26.4a.27.27,0,0,0,.08.38.3.3,0,0,0,.15.05.28.28,0,0,0,.23-.13l.24-.37.26.39a.28.28,0,0,0,.23.12.29.29,0,0,0,.16,0,.28.28,0,0,0,.07-.39L34,82l.43-.12a.27.27,0,0,0,.19-.34.28.28,0,0,0-.34-.19l-.45.12v-.42A.28.28,0,0,0,33.51,80.81Z"/><path class="cls-2" d="M28.52,81.57a.27.27,0,0,0-.28.27v.43l-.45-.13a.28.28,0,0,0-.34.2.27.27,0,0,0,.2.33l.43.12-.26.41a.27.27,0,0,0,.08.38.26.26,0,0,0,.15,0,.27.27,0,0,0,.23-.12l.24-.37.26.38a.28.28,0,0,0,.23.13.27.27,0,0,0,.15,0,.28.28,0,0,0,.08-.38L29,82.79l.43-.12a.27.27,0,0,0,.19-.33.28.28,0,0,0-.34-.2l-.45.13v-.43A.27.27,0,0,0,28.52,81.57Z"/><path class="cls-2" d="M37.83,78.7a.28.28,0,0,0-.27.28v.42l-.46-.12a.27.27,0,0,0-.33.2.27.27,0,0,0,.19.33l.43.12-.26.41a.29.29,0,0,0,.08.38.28.28,0,0,0,.15,0,.27.27,0,0,0,.23-.12l.25-.38.26.39a.27.27,0,0,0,.23.12.28.28,0,0,0,.15,0,.27.27,0,0,0,.07-.38l-.28-.42.43-.12a.27.27,0,0,0,.2-.33.28.28,0,0,0-.34-.2l-.45.12V79A.29.29,0,0,0,37.83,78.7Z"/><path class="cls-2" d="M43.38,78.7a.28.28,0,0,0-.27.28v.42l-.46-.12a.27.27,0,0,0-.33.2.27.27,0,0,0,.19.33l.43.12-.26.41a.29.29,0,0,0,.08.38.28.28,0,0,0,.15,0,.27.27,0,0,0,.23-.12l.24-.38.27.39a.26.26,0,0,0,.22.12.29.29,0,0,0,.16,0,.27.27,0,0,0,.07-.38l-.28-.42.43-.12a.27.27,0,0,0,.2-.33.28.28,0,0,0-.34-.2l-.45.12V79A.29.29,0,0,0,43.38,78.7Z"/><path class="cls-2" d="M39,73.21a.28.28,0,0,0-.28.28v.42l-.45-.12A.28.28,0,0,0,38,74a.28.28,0,0,0,.2.34l.43.12-.26.4a.27.27,0,0,0,.08.38.3.3,0,0,0,.15,0,.28.28,0,0,0,.23-.13l.24-.37.26.39a.28.28,0,0,0,.23.12.24.24,0,0,0,.16,0,.27.27,0,0,0,.07-.38l-.28-.41.43-.12a.27.27,0,0,0-.14-.53l-.46.12v-.42A.27.27,0,0,0,39,73.21Z"/><path class="cls-2" d="M33,70.81a.27.27,0,0,0-.28.28v.42l-.45-.12a.27.27,0,1,0-.14.53l.43.12-.26.4a.27.27,0,0,0,.08.38.3.3,0,0,0,.15.05.28.28,0,0,0,.23-.13l.24-.37.26.39a.28.28,0,0,0,.23.12.21.21,0,0,0,.15,0,.27.27,0,0,0,.08-.38L33.4,72l.43-.12a.28.28,0,0,0-.15-.53l-.45.12v-.42A.27.27,0,0,0,33,70.81Z"/><path class="cls-2" d="M27.12,74.25a.28.28,0,0,0-.28.27V75l-.45-.13a.28.28,0,0,0-.34.2.27.27,0,0,0,.2.33l.43.12-.26.41a.28.28,0,0,0,.08.38.28.28,0,0,0,.15,0,.27.27,0,0,0,.23-.12l.24-.37.26.38a.29.29,0,0,0,.23.13.3.3,0,0,0,.16,0,.27.27,0,0,0,.07-.38l-.28-.42.43-.12a.26.26,0,0,0,.19-.33.27.27,0,0,0-.33-.2l-.46.13v-.43A.27.27,0,0,0,27.12,74.25Z"/><path class="cls-2" d="M34,75.63a.27.27,0,0,0-.27.28v.42l-.46-.12a.27.27,0,0,0-.14.53l.43.12-.26.4a.28.28,0,0,0,.08.38.3.3,0,0,0,.15,0,.28.28,0,0,0,.23-.13l.25-.37.26.39a.27.27,0,0,0,.23.12.23.23,0,0,0,.15,0,.27.27,0,0,0,.07-.38l-.28-.41.43-.12a.28.28,0,0,0,.2-.34.28.28,0,0,0-.34-.19l-.45.12v-.42A.28.28,0,0,0,34,75.63Z"/><path class="cls-2" d="M40.09,66a.27.27,0,0,0-.27.28v.42l-.45-.12a.27.27,0,0,0-.34.19.28.28,0,0,0,.19.34l.44.12-.27.4a.28.28,0,0,0,.08.38.3.3,0,0,0,.15,0,.31.31,0,0,0,.24-.13l.24-.37.26.39a.27.27,0,0,0,.23.12.3.3,0,0,0,.15,0,.27.27,0,0,0,.08-.38l-.28-.41L41,67.1a.28.28,0,0,0,.2-.34.27.27,0,0,0-.34-.19l-.45.12v-.42A.27.27,0,0,0,40.09,66Z"/><path class="cls-2" d="M29.59,67a.28.28,0,0,0-.28.27v.42l-.45-.12a.27.27,0,0,0-.33.2.27.27,0,0,0,.19.33l.43.12-.26.41A.28.28,0,0,0,29,69a.28.28,0,0,0,.15,0,.27.27,0,0,0,.23-.12l.24-.38.27.39a.27.27,0,0,0,.22.13.3.3,0,0,0,.16,0,.27.27,0,0,0,.07-.38L30,68.25l.43-.12a.27.27,0,0,0-.14-.53l-.45.12V67.3A.28.28,0,0,0,29.59,67Z"/><path class="cls-2" d="M37.94,61.37a.27.27,0,0,0-.27.27v.43l-.45-.13a.28.28,0,0,0-.34.2.27.27,0,0,0,.19.33l.44.12-.26.41a.27.27,0,0,0,.08.38.24.24,0,0,0,.15,0,.28.28,0,0,0,.23-.12l.24-.37.26.38a.28.28,0,0,0,.23.13.3.3,0,0,0,.15,0,.28.28,0,0,0,.08-.38l-.28-.42.43-.12a.27.27,0,0,0,.19-.33.28.28,0,0,0-.34-.2l-.45.13v-.43A.27.27,0,0,0,37.94,61.37Z"/><path class="cls-2" d="M44.46,59.8a.28.28,0,0,0-.28.28v.42l-.45-.12a.28.28,0,1,0-.15.53L44,61l-.26.4a.27.27,0,0,0,.08.38.27.27,0,0,0,.15,0,.28.28,0,0,0,.23-.13l.24-.37.26.39a.27.27,0,0,0,.23.12.26.26,0,0,0,.15,0,.29.29,0,0,0,.08-.39L44.9,61l.43-.12a.28.28,0,0,0-.15-.53l-.45.12v-.42A.28.28,0,0,0,44.46,59.8Z"/><path class="cls-2" d="M34,66a.27.27,0,0,0-.27.28v.42l-.46-.12a.27.27,0,0,0-.33.19.27.27,0,0,0,.19.34l.43.12-.26.4a.28.28,0,0,0,.08.38.3.3,0,0,0,.15,0,.28.28,0,0,0,.23-.13l.25-.37.26.39a.27.27,0,0,0,.23.12.3.3,0,0,0,.15,0,.27.27,0,0,0,.07-.38l-.28-.41.43-.12a.27.27,0,1,0-.14-.53l-.45.12v-.42A.28.28,0,0,0,34,66Z"/><path class="cls-2" d="M34,60.84a.27.27,0,0,0-.27.27v.43l-.46-.13a.28.28,0,0,0-.14.54l.43.11-.26.41a.27.27,0,0,0,.23.42.27.27,0,0,0,.23-.12L34,62.4l.26.39a.29.29,0,0,0,.23.12.3.3,0,0,0,.15,0,.27.27,0,0,0,.07-.38l-.28-.42L34.9,62a.28.28,0,0,0,.2-.34.28.28,0,0,0-.34-.2l-.45.13v-.43A.28.28,0,0,0,34,60.84Z"/><path class="cls-2" d="M37.94,95.89a.27.27,0,0,0-.27.27v.43l-.45-.12a.27.27,0,0,0-.34.19.28.28,0,0,0,.19.34l.44.12-.26.4a.27.27,0,0,0,.08.38.25.25,0,0,0,.15,0,.29.29,0,0,0,.23-.13l.24-.37.26.39a.27.27,0,0,0,.23.12.3.3,0,0,0,.15,0,.27.27,0,0,0,.08-.38l-.28-.42.43-.11a.28.28,0,0,0,.19-.34.27.27,0,0,0-.34-.19l-.45.12v-.43A.27.27,0,0,0,37.94,95.89Z"/><path class="cls-2" d="M29.68,89.6a.29.29,0,0,0-.28.28v.42L29,90.18a.27.27,0,0,0-.14.53l.43.12-.26.41a.28.28,0,0,0,.08.38.28.28,0,0,0,.15,0,.27.27,0,0,0,.23-.12l.24-.38.26.39a.28.28,0,0,0,.23.12.29.29,0,0,0,.16,0,.27.27,0,0,0,.07-.38l-.28-.42.43-.12a.27.27,0,0,0,.19-.33.27.27,0,0,0-.33-.2L30,90.3v-.42A.29.29,0,0,0,29.68,89.6Z"/><path class="cls-2" d="M33.6,95.14a.28.28,0,0,0-.28.27v.43l-.45-.13a.28.28,0,0,0-.34.2.28.28,0,0,0,.2.34l.43.11-.26.41a.28.28,0,0,0,.08.38.28.28,0,0,0,.15,0,.27.27,0,0,0,.23-.12l.24-.37.26.38a.29.29,0,0,0,.23.13.27.27,0,0,0,.15,0,.28.28,0,0,0,.08-.38L34,96.36l.43-.11a.28.28,0,0,0-.15-.54l-.45.13v-.43A.27.27,0,0,0,33.6,95.14Z"/><path class="cls-2" d="M40.48,87.53a.28.28,0,0,0-.28.28v.42l-.45-.12a.28.28,0,0,0-.34.2.27.27,0,0,0,.19.33l.44.12-.26.41a.27.27,0,0,0,.08.38.26.26,0,0,0,.15,0,.27.27,0,0,0,.23-.12l.24-.38.26.39a.27.27,0,0,0,.23.12.26.26,0,0,0,.15,0,.28.28,0,0,0,.08-.38l-.28-.42.43-.12a.27.27,0,0,0,.19-.33.28.28,0,0,0-.34-.2l-.45.12v-.42A.28.28,0,0,0,40.48,87.53Z"/><path class="cls-2" d="M27.53,85.46a.28.28,0,0,0-.27.28v.42L26.8,86a.27.27,0,0,0-.33.2.27.27,0,0,0,.19.33l.43.12-.26.41a.29.29,0,0,0,.08.38.28.28,0,0,0,.15,0,.27.27,0,0,0,.23-.12l.25-.38.26.39a.27.27,0,0,0,.23.12.28.28,0,0,0,.15,0,.27.27,0,0,0,.07-.38L28,86.69l.43-.12a.27.27,0,0,0,.2-.33.28.28,0,0,0-.34-.2l-.45.12v-.42A.29.29,0,0,0,27.53,85.46Z"/><path class="cls-2" d="M34.12,90a.28.28,0,0,0-.27.28v.42l-.46-.12a.27.27,0,0,0-.33.2.27.27,0,0,0,.19.33l.43.12-.26.41a.28.28,0,0,0,.08.38.28.28,0,0,0,.15,0,.27.27,0,0,0,.23-.12l.24-.38.27.39a.26.26,0,0,0,.22.12.29.29,0,0,0,.16,0,.27.27,0,0,0,.07-.38l-.28-.42.43-.12a.27.27,0,1,0-.14-.53l-.45.12v-.42A.29.29,0,0,0,34.12,90Z"/><path class="cls-2" d="M72.09,47a.27.27,0,0,0-.28.28v.42l-.45-.12a.27.27,0,1,0-.14.53l.43.12-.26.4a.27.27,0,0,0,.08.38.27.27,0,0,0,.15.05.28.28,0,0,0,.23-.13l.24-.37.26.39a.27.27,0,0,0,.23.12.21.21,0,0,0,.15-.05.27.27,0,0,0,.08-.38l-.28-.41.43-.12a.28.28,0,0,0-.15-.53l-.45.12v-.42A.27.27,0,0,0,72.09,47Z"/><path class="cls-2" d="M77.42,53.16a.28.28,0,0,0-.28.28v.42l-.45-.12a.27.27,0,1,0-.14.53l.43.12-.26.4a.27.27,0,0,0,.08.38.3.3,0,0,0,.15,0,.28.28,0,0,0,.23-.13l.24-.37.26.39a.28.28,0,0,0,.23.12.24.24,0,0,0,.16,0,.27.27,0,0,0,.07-.38l-.28-.41.43-.12a.27.27,0,0,0,.19-.34.27.27,0,0,0-.33-.19l-.46.12v-.42A.27.27,0,0,0,77.42,53.16Z"/><path class="cls-2" d="M60.59,43.26a.27.27,0,0,0-.27.28V44l-.46-.12a.27.27,0,0,0-.33.19.27.27,0,0,0,.19.34l.43.12-.26.4a.28.28,0,0,0,.08.38.3.3,0,0,0,.15,0,.28.28,0,0,0,.23-.13l.25-.37.26.39a.27.27,0,0,0,.23.12.3.3,0,0,0,.15,0,.26.26,0,0,0,.07-.38L61,44.49l.43-.12a.28.28,0,0,0,.2-.34.27.27,0,0,0-.34-.19l-.45.12v-.42A.28.28,0,0,0,60.59,43.26Z"/><path class="cls-2" d="M104.16,50.33a.27.27,0,0,0-.27.28V51l-.45-.12a.28.28,0,1,0-.15.53l.44.12-.27.4a.28.28,0,0,0,.09.38.25.25,0,0,0,.15,0,.29.29,0,0,0,.23-.13l.24-.37.26.39a.27.27,0,0,0,.23.12.23.23,0,0,0,.15,0,.27.27,0,0,0,.08-.38l-.28-.41.42-.12a.27.27,0,1,0-.14-.53l-.45.12v-.42A.27.27,0,0,0,104.16,50.33Z"/><path class="cls-2" d="M82.25,56.72A.27.27,0,0,0,82,57v.43l-.45-.12a.27.27,0,0,0-.34.19.28.28,0,0,0,.2.34l.43.12-.26.4a.27.27,0,0,0,.08.38.3.3,0,0,0,.15.05.28.28,0,0,0,.23-.13l.24-.37.26.39a.28.28,0,0,0,.23.12.27.27,0,0,0,.15,0,.27.27,0,0,0,.08-.38l-.28-.42.43-.11a.28.28,0,0,0,.19-.34A.27.27,0,0,0,83,57.3l-.45.12V57A.27.27,0,0,0,82.25,56.72Z"/><path class="cls-2" d="M89.3,64.73A.28.28,0,0,0,89,65v.43l-.45-.12a.27.27,0,0,0-.34.19.28.28,0,0,0,.2.34l.43.11-.26.41a.27.27,0,0,0,.08.38.28.28,0,0,0,.15,0,.27.27,0,0,0,.23-.12l.24-.37.26.39a.28.28,0,0,0,.23.12.3.3,0,0,0,.16,0,.27.27,0,0,0,.07-.38L89.74,66l.43-.11a.27.27,0,0,0,.19-.34.27.27,0,0,0-.33-.19l-.46.12V65A.27.27,0,0,0,89.3,64.73Z"/><path class="cls-2" d="M67.92,43.26a.28.28,0,0,0-.28.28V44l-.45-.12a.27.27,0,0,0-.34.19.28.28,0,0,0,.2.34l.43.12-.26.4a.27.27,0,0,0,.08.38.3.3,0,0,0,.15,0,.28.28,0,0,0,.23-.13l.24-.37.26.39a.28.28,0,0,0,.23.12.27.27,0,0,0,.15,0,.27.27,0,0,0,.08-.38l-.28-.41.43-.12a.28.28,0,0,0-.15-.53l-.45.12v-.42A.27.27,0,0,0,67.92,43.26Z"/><path class="cls-2" d="M93.62,62.62a.27.27,0,0,0-.27.28v.42l-.46-.12a.27.27,0,0,0-.14.53l.43.12-.26.4a.28.28,0,0,0,.08.38.3.3,0,0,0,.15.05.28.28,0,0,0,.23-.13l.25-.37.26.39a.27.27,0,0,0,.23.12.23.23,0,0,0,.15,0,.26.26,0,0,0,.07-.38l-.28-.41.43-.12a.27.27,0,1,0-.14-.53l-.45.12V62.9A.28.28,0,0,0,93.62,62.62Z"/><path class="cls-2" d="M94.81,57.13a.28.28,0,0,0-.28.27v.43l-.45-.13a.28.28,0,1,0-.14.54l.43.11-.26.41a.27.27,0,0,0,.08.38.28.28,0,0,0,.15,0,.27.27,0,0,0,.23-.12l.24-.37.26.38a.29.29,0,0,0,.23.13.3.3,0,0,0,.16-.05.27.27,0,0,0,.07-.38l-.28-.42.43-.11a.28.28,0,0,0,.19-.34.27.27,0,0,0-.33-.2l-.46.13V57.4A.27.27,0,0,0,94.81,57.13Z"/><path class="cls-2" d="M88.75,54.73a.27.27,0,0,0-.28.27v.43L88,55.3a.28.28,0,0,0-.34.2.28.28,0,0,0,.2.34l.43.11-.26.41a.27.27,0,0,0,.08.38.28.28,0,0,0,.15,0,.27.27,0,0,0,.23-.12l.24-.37.26.38a.29.29,0,0,0,.23.13.27.27,0,0,0,.15,0,.28.28,0,0,0,.08-.38L89.19,56l.43-.11a.28.28,0,0,0,.19-.34.28.28,0,0,0-.34-.2l-.45.13V55A.27.27,0,0,0,88.75,54.73Z"/><path class="cls-2" d="M80.76,50.33a.28.28,0,0,0-.28.28V51L80,50.91a.27.27,0,0,0-.14.53l.43.12-.26.4a.27.27,0,0,0,.08.38.3.3,0,0,0,.15,0,.28.28,0,0,0,.23-.13l.24-.37.27.39a.26.26,0,0,0,.22.12.24.24,0,0,0,.16,0,.27.27,0,0,0,.07-.38l-.28-.41.43-.12a.27.27,0,0,0,.19-.34.27.27,0,0,0-.33-.19L81,51v-.42A.28.28,0,0,0,80.76,50.33Z"/><path class="cls-2" d="M89.82,59.55a.27.27,0,0,0-.27.27v.43l-.46-.13a.28.28,0,0,0-.14.54l.43.11-.26.41a.27.27,0,0,0,.23.42.27.27,0,0,0,.23-.12l.25-.37.26.39a.29.29,0,0,0,.23.12.3.3,0,0,0,.15,0,.27.27,0,0,0,.07-.38l-.28-.42.43-.11a.28.28,0,0,0,.2-.34.28.28,0,0,0-.34-.2l-.45.13v-.43A.28.28,0,0,0,89.82,59.55Z"/><path class="cls-2" d="M95.88,49.91a.27.27,0,0,0-.27.27v.43l-.45-.13a.28.28,0,0,0-.34.2A.28.28,0,0,0,95,51l.44.11-.27.41a.28.28,0,0,0,.09.38.23.23,0,0,0,.14,0,.3.3,0,0,0,.24-.12l.24-.37.26.38a.28.28,0,0,0,.23.13.3.3,0,0,0,.15,0,.28.28,0,0,0,.08-.38l-.28-.42.42-.11a.28.28,0,0,0,.2-.34.28.28,0,0,0-.34-.2l-.45.13v-.43A.27.27,0,0,0,95.88,49.91Z"/><path class="cls-2" d="M85.38,50.94a.28.28,0,0,0-.28.28v.42l-.45-.12a.27.27,0,0,0-.14.53l.43.12-.26.4a.27.27,0,0,0,.08.38.3.3,0,0,0,.15,0,.28.28,0,0,0,.23-.13l.24-.37.27.39a.26.26,0,0,0,.22.12A.24.24,0,0,0,86,53a.27.27,0,0,0,.07-.38l-.28-.41.43-.12a.27.27,0,0,0,.19-.34.27.27,0,0,0-.33-.19l-.45.12v-.42A.28.28,0,0,0,85.38,50.94Z"/><path class="cls-2" d="M89.82,49.91a.27.27,0,0,0-.27.27v.43l-.46-.13a.27.27,0,0,0-.33.2A.28.28,0,0,0,89,51l.43.11-.26.41a.27.27,0,0,0,.23.42.27.27,0,0,0,.23-.12l.25-.37.26.38a.28.28,0,0,0,.23.13.3.3,0,0,0,.15,0,.27.27,0,0,0,.07-.38l-.28-.42.43-.11a.28.28,0,1,0-.14-.54l-.45.13v-.43A.28.28,0,0,0,89.82,49.91Z"/><path class="cls-2" d="M62.78,45.56a.27.27,0,0,0-.28.27v.43l-.45-.12a.27.27,0,0,0-.34.19.28.28,0,0,0,.2.34l.43.12-.26.4a.27.27,0,0,0,.08.38.27.27,0,0,0,.15,0,.28.28,0,0,0,.23-.13l.24-.37.26.39a.27.27,0,0,0,.38.07.27.27,0,0,0,.08-.38l-.28-.42.43-.11a.28.28,0,0,0,.19-.34.27.27,0,0,0-.34-.19l-.45.12v-.43A.27.27,0,0,0,62.78,45.56Z"/><path class="cls-2" d="M93.73,53.44a.27.27,0,0,0-.27.28v.42L93,54a.28.28,0,1,0-.15.53l.44.12-.26.4a.27.27,0,0,0,.08.38.25.25,0,0,0,.15,0,.29.29,0,0,0,.23-.13l.24-.37.26.39a.27.27,0,0,0,.23.12.23.23,0,0,0,.15,0,.27.27,0,0,0,.08-.38l-.28-.41.43-.12a.28.28,0,0,0-.15-.53l-.45.12v-.42A.27.27,0,0,0,93.73,53.44Z"/><path class="cls-2" d="M60.63,49.54a.28.28,0,0,0-.28.28v.42l-.45-.12a.27.27,0,0,0-.34.19.28.28,0,0,0,.2.34l.43.12-.26.4a.27.27,0,0,0,.08.38.3.3,0,0,0,.15.05.28.28,0,0,0,.23-.13l.24-.37.26.39a.28.28,0,0,0,.23.12.25.25,0,0,0,.16,0,.27.27,0,0,0,.07-.38l-.28-.41.43-.12a.28.28,0,0,0-.15-.53l-.45.12v-.42A.27.27,0,0,0,60.63,49.54Z"/><path class="cls-2" d="M53.38,42.72a.28.28,0,0,0-.28.27v.43l-.45-.12a.27.27,0,0,0-.33.19.27.27,0,0,0,.19.34l.43.11-.26.41a.27.27,0,0,0,.08.38.28.28,0,0,0,.15,0,.27.27,0,0,0,.23-.12l.24-.37.27.39a.29.29,0,0,0,.22.12.3.3,0,0,0,.16,0,.27.27,0,0,0,.07-.38l-.28-.42.43-.11a.27.27,0,0,0,.19-.34.26.26,0,0,0-.33-.19l-.45.12V43A.28.28,0,0,0,53.38,42.72Z"/><path class="cls-2" d="M105.29,59.14a.28.28,0,0,0-.27.28v.42l-.45-.12a.28.28,0,0,0-.34.2.27.27,0,0,0,.19.33l.44.12-.27.41a.29.29,0,0,0,.08.38.28.28,0,0,0,.15,0,.3.3,0,0,0,.24-.12l.24-.38.26.39a.27.27,0,0,0,.23.12.28.28,0,0,0,.15,0,.27.27,0,0,0,.07-.38l-.27-.42.42-.12a.27.27,0,0,0,.2-.33.28.28,0,0,0-.34-.2l-.45.12v-.42A.29.29,0,0,0,105.29,59.14Z"/><path class="cls-2" d="M99.23,56.74A.28.28,0,0,0,99,57v.42l-.46-.12a.27.27,0,0,0-.33.2.27.27,0,0,0,.19.33l.43.12-.26.41a.29.29,0,0,0,.08.38.28.28,0,0,0,.15,0,.27.27,0,0,0,.23-.12l.24-.38.27.39a.26.26,0,0,0,.22.12.29.29,0,0,0,.16,0,.27.27,0,0,0,.07-.38L99.67,58l.43-.12a.27.27,0,0,0,.2-.33.28.28,0,0,0-.34-.2l-.45.12V57A.29.29,0,0,0,99.23,56.74Z"/><path class="cls-2" d="M100.31,61.56a.28.28,0,0,0-.28.28v.42l-.45-.12a.28.28,0,0,0-.34.2.27.27,0,0,0,.19.33l.44.12-.26.41a.27.27,0,0,0,.08.38.26.26,0,0,0,.15,0,.27.27,0,0,0,.23-.12l.24-.38.26.39a.27.27,0,0,0,.23.12.26.26,0,0,0,.15,0,.28.28,0,0,0,.08-.38l-.28-.42.43-.12a.27.27,0,0,0,.19-.33.28.28,0,0,0-.34-.2l-.45.12v-.42A.28.28,0,0,0,100.31,61.56Z"/><path class="cls-2" d="M104.22,55.46a.28.28,0,0,0-.28.27v.43l-.45-.12a.27.27,0,0,0-.34.19.28.28,0,0,0,.2.34l.43.12-.26.4a.27.27,0,0,0,.08.38.3.3,0,0,0,.15.05.28.28,0,0,0,.23-.13l.24-.37.26.39a.28.28,0,0,0,.23.12.33.33,0,0,0,.16-.05.27.27,0,0,0,.07-.38l-.28-.42.43-.11a.28.28,0,0,0-.15-.53l-.45.12v-.43A.27.27,0,0,0,104.22,55.46Z"/><path class="cls-2" d="M103.27,92.36a.28.28,0,0,0-.27.28v.42l-.45-.12a.28.28,0,1,0-.15.53l.44.12-.27.4a.29.29,0,0,0,.09.39.24.24,0,0,0,.15,0,.27.27,0,0,0,.23-.13l.24-.37.26.39a.27.27,0,0,0,.23.12.28.28,0,0,0,.15,0A.29.29,0,0,0,104,94l-.28-.41.42-.12a.27.27,0,1,0-.14-.53l-.45.12v-.42A.28.28,0,0,0,103.27,92.36Z"/><path class="cls-2" d="M99.23,89.75A.28.28,0,0,0,99,90v.42l-.46-.12a.27.27,0,0,0-.14.53l.43.12-.26.4a.28.28,0,0,0,.08.38.3.3,0,0,0,.15,0,.28.28,0,0,0,.23-.13l.24-.37.27.39a.26.26,0,0,0,.22.12.29.29,0,0,0,.16,0,.28.28,0,0,0,.07-.39L99.67,91l.43-.12a.28.28,0,0,0,.2-.34.28.28,0,0,0-.34-.19l-.45.12V90A.29.29,0,0,0,99.23,89.75Z"/><path class="cls-2" d="M98.16,95.14a.27.27,0,0,0-.28.27v.43l-.45-.13a.28.28,0,0,0-.34.2.28.28,0,0,0,.2.34l.43.11-.26.41a.27.27,0,0,0,.08.38.28.28,0,0,0,.15,0,.27.27,0,0,0,.23-.12l.24-.37.26.38a.28.28,0,0,0,.23.13.27.27,0,0,0,.15,0,.28.28,0,0,0,.08-.38l-.28-.42.43-.11a.28.28,0,0,0,.19-.34.28.28,0,0,0-.34-.2l-.45.13v-.43A.27.27,0,0,0,98.16,95.14Z"/><path class="cls-2" d="M104.22,88.47a.28.28,0,0,0-.28.27v.43l-.45-.13a.28.28,0,0,0-.14.54l.43.11-.26.41a.27.27,0,0,0,.08.38.28.28,0,0,0,.15,0,.27.27,0,0,0,.23-.12l.24-.37.26.39a.31.31,0,0,0,.23.12.33.33,0,0,0,.16-.05.27.27,0,0,0,.07-.38l-.28-.42.43-.11a.27.27,0,0,0,.19-.34.28.28,0,0,0-.34-.2l-.45.13v-.43A.27.27,0,0,0,104.22,88.47Z"/></g></g></g></g></svg>