<svg xmlns="http://www.w3.org/2000/svg" viewBox="0 0 145.23 113.94"><defs><style>.cls-1,.cls-6{fill:none;}.cls-2{fill:#ccebf1;stroke:#fff;stroke-width:2px;}.cls-10,.cls-2,.cls-3,.cls-4,.cls-6,.cls-7,.cls-8{stroke-miterlimit:10;}.cls-3{fill:#e45a33;}.cls-10,.cls-3,.cls-4,.cls-6,.cls-7,.cls-8{stroke:#47494c;}.cls-4{fill:#7e9180;}.cls-5{fill:#c5c3c6;}.cls-7{fill:#f57f20;}.cls-8{fill:#fff;}.cls-9{fill:#47494c;}.cls-10{fill:#8ac640;}.cls-11{fill:#757576;}</style></defs><g id="Layer_2" data-name="Layer 2"><g id="Layer_1-2" data-name="Layer 1"><g id="wind"><rect class="cls-1" width="145.23" height="113.94"/><g id="wind-2" data-name="wind"><g id="cloud"><path class="cls-2" d="M97,39.32c0,.14.08.23.1.31,2.73,8.59-2.23,15.56-11.25,15.56H60.45c-6.05,0-11.44-4.44-12-10.46,0-.37,0-.74,0-1.12A12.23,12.23,0,0,1,58,31.69a13.77,13.77,0,0,1,26.78-.28h.07C88.93,31.17,95,33.68,97,39.32Z"/><path class="cls-2" d="M68.9,59.63c0,.11.06.18.08.24,2,6.42-1.68,11.63-8.41,11.63h-19a8.87,8.87,0,0,1-8.95-7.82,7.75,7.75,0,0,1,0-.84,9.15,9.15,0,0,1,7.14-8.91,10.29,10.29,0,0,1,20-.21h0C62.91,53.54,67.44,55.42,68.9,59.63Z"/><path class="cls-2" d="M55.84,31.09a.88.88,0,0,1,.06.17c1.5,4.73-1.23,8.58-6.2,8.58h-14a6.54,6.54,0,0,1-6.6-5.77c0-.2,0-.41,0-.62a6.74,6.74,0,0,1,5.26-6.57,7.59,7.59,0,0,1,14.76-.15h0A6.9,6.9,0,0,1,55.84,31.09Z"/><path class="cls-2" d="M105.57,53.25l.05.15c1.29,4.08-1.06,7.38-5.33,7.38h-12a5.62,5.62,0,0,1-5.68-5,4.58,4.58,0,0,1,0-.53,5.8,5.8,0,0,1,4.53-5.65,6.53,6.53,0,0,1,12.7-.14h0A6,6,0,0,1,105.57,53.25Z"/></g><g id="house"><path class="cls-3" d="M57.29,53.81v5.7l-4.83,4.58V53.81a.56.56,0,0,1,.58-.55H56.7A.57.57,0,0,1,57.29,53.81Z"/><path class="cls-4" d="M92.22,75.3h0a1.65,1.65,0,0,1-2.36,0l-1.72-1.72-2.72-2.72-16-16a2.06,2.06,0,0,0-2.94,0L57.24,64l-3.46,3.46L50.4,70.86l-2.65,2.65L46,75.3a1.65,1.65,0,0,1-2.36,0h0a1.67,1.67,0,0,1,0-2.36l8.81-8.81,4.83-4.83L65.55,51h0a3.34,3.34,0,0,1,4.72,0l22,21.95A1.65,1.65,0,0,1,92.22,75.3Z"/><path class="cls-5" d="M88.11,73.58V99.13H47.72V73.51l2.65-2.65,3.38-3.38L57.21,64l9.24-9.23a2,2,0,0,1,2.86,0L85.39,70.86Z"/><path class="cls-6" d="M71.38,99.13H47.72V73.51l2.65-2.65,3.38-3.38L57.21,64l9.24-9.23a2,2,0,0,1,2.86,0L85.39,70.86l2.72,2.72V99.13"/><path class="cls-7" d="M64.34,85.89h7.14a.6.6,0,0,1,.6.6V99.13a0,0,0,0,1,0,0H63.75a0,0,0,0,1,0,0V86.49A.6.6,0,0,1,64.34,85.89Z"/><rect class="cls-8" x="54.3" y="75.28" width="6.29" height="6.29" rx="0.57"/><rect class="cls-8" x="75.24" y="75.28" width="6.29" height="6.29" rx="0.57"/><rect class="cls-9" x="53.38" y="48.63" width="3.45" height="1.5" rx="0.38"/><rect class="cls-9" x="55.42" y="46.12" width="2.32" height="0.95" rx="0.34"/></g><g id="lower"><rect class="cls-9" x="35.1" y="98.7" width="40.14" height="1.34" rx="0.67"/><rect class="cls-9" x="85.11" y="98.7" width="15.35" height="1.34" rx="0.67"/><rect class="cls-9" x="80.76" y="102.77" width="8.83" height="1.34" rx="0.67"/><rect class="cls-9" x="43.01" y="102.77" width="26.21" height="1.34" rx="0.67"/><rect class="cls-9" x="40.41" y="91.73" width="5.94" height="1.34" rx="0.67" transform="translate(135.78 49.03) rotate(90)"/></g><g id="tree"><path class="cls-9" d="M93.6,98.7a19.68,19.68,0,0,1,0-12.86h1.34a17.69,17.69,0,0,0,0,12.86Z"/><path class="cls-10" d="M94.18,67.79a7.42,7.42,0,0,1,5.7-1.58,7.32,7.32,0,0,1,4.84,3.06,7.51,7.51,0,0,1,.73,6.41,6,6,0,0,1,3.72,4,5.59,5.59,0,0,1-2,5.75,5.9,5.9,0,0,1-5,.93,3.92,3.92,0,0,1-7.56.27,5.6,5.6,0,0,1-5.81.1,5.67,5.67,0,0,1-2.4-6.16A6.29,6.29,0,0,1,90,76.42a4.87,4.87,0,0,1,4.17-8.63Z"/></g><path class="cls-11" d="M28.85,52.63a30.49,30.49,0,0,0,5.61,1c1.62.15,3.52.3,4.91-.72a2.47,2.47,0,0,0,.73-3.51c-.73-.86-2.73-1.44-3.54-.41a1.52,1.52,0,0,0,0,1.81,2,2,0,0,0,2,.61c.47-.1.27-.83-.2-.73-.63.13-1.67-.23-1.34-1.07.26-.68,1.32-.36,1.81-.16a1.41,1.41,0,0,1,.86,1.82,2.49,2.49,0,0,1-1.5,1.41,9.5,9.5,0,0,1-4.31.15,29.09,29.09,0,0,1-4.88-1,.38.38,0,0,0-.2.73Z"/><path class="cls-11" d="M35.75,60.13a16.93,16.93,0,0,0,4.21,1,4.15,4.15,0,0,0,3.57-1,2.18,2.18,0,0,0,.62-1.6,1.8,1.8,0,0,0-.9-1.32c-1-.64-2.48-.74-3.06.46a1.24,1.24,0,0,0,.29,1.5,1.18,1.18,0,0,0,1.43.14c.39-.28,0-.93-.38-.65a.48.48,0,0,1-.72-.51A1,1,0,0,1,42,57.52a1.94,1.94,0,0,1,1.36.84,1.32,1.32,0,0,1-.49,1.44,4.12,4.12,0,0,1-3.36.54A17.16,17.16,0,0,1,36,59.41c-.45-.18-.65.55-.2.72Z"/><path class="cls-11" d="M41.49,55.3c1.9-2.15,5-2.09,7.58-1.67,2.77.44,5.64,1.18,8.39.19.45-.16.25-.89-.2-.72-3,1.1-6.19,0-9.25-.37-2.5-.29-5.3.05-7,2-.32.36.21.89.53.53Z"/><path class="cls-11" d="M47.56,51.15c2.55.22,5.46.34,7.42-1.63a.38.38,0,0,0-.53-.53c-1.8,1.81-4.56,1.61-6.89,1.41-.48,0-.48.71,0,.75Z"/><path class="cls-11" d="M27.87,62.54A12.72,12.72,0,0,1,30.54,62a4.53,4.53,0,0,1,2.34.23c.54.26,1.14,1,.67,1.58a.55.55,0,0,1-.72.11.33.33,0,0,1,.07-.55c.46-.16.27-.88-.19-.73a1.09,1.09,0,0,0-.47,1.75,1.28,1.28,0,0,0,2-.27A1.75,1.75,0,0,0,33.78,62a3.67,3.67,0,0,0-2.55-.72,13.45,13.45,0,0,0-3.56.58.37.37,0,0,0,.2.72Z"/><path class="cls-11" d="M79.46,47.91c4.5.37,8.5-2,12.74-3a14.18,14.18,0,0,1,3.43-.47,3.57,3.57,0,0,1,2.74.81,1.65,1.65,0,0,1-.45,2.61,1.41,1.41,0,0,1-1.54-.26c-.47-.44-.56-1.49.27-1.59.47-.06.48-.81,0-.75-2,.24-1.62,2.78,0,3.34a2.29,2.29,0,0,0,2.86-2.86c-.6-2-3-2.15-4.77-2a27.28,27.28,0,0,0-7,1.86c-2.65.95-5.38,1.87-8.23,1.63-.48,0-.48.71,0,.75Z"/><path class="cls-11" d="M93,42.1a30.75,30.75,0,0,0,5.62,1c1.62.15,3.51.3,4.9-.72a2.46,2.46,0,0,0,.73-3.51c-.72-.86-2.72-1.44-3.54-.41a1.53,1.53,0,0,0,0,1.81,2,2,0,0,0,2,.61c.47-.1.27-.83-.2-.73-.63.13-1.67-.23-1.35-1.07.27-.68,1.32-.36,1.81-.16a1.4,1.4,0,0,1,.86,1.82,2.44,2.44,0,0,1-1.5,1.41,9.45,9.45,0,0,1-4.3.15,29,29,0,0,1-4.89-1,.38.38,0,0,0-.2.73Z"/><path class="cls-11" d="M99.86,49.6a17,17,0,0,0,4.22,1,4.15,4.15,0,0,0,3.57-1,2.18,2.18,0,0,0,.61-1.6,1.8,1.8,0,0,0-.9-1.32c-1-.64-2.47-.74-3,.46a1.24,1.24,0,0,0,.28,1.5,1.18,1.18,0,0,0,1.43.14c.39-.28,0-.93-.38-.65a.48.48,0,0,1-.71-.51,1,1,0,0,1,1.16-.67,1.92,1.92,0,0,1,1.35.84,1.31,1.31,0,0,1-.49,1.44,4.12,4.12,0,0,1-3.36.54,17.16,17.16,0,0,1-3.53-.93c-.45-.18-.64.55-.2.72Z"/><path class="cls-11" d="M105.6,44.77c1.9-2.16,5-2.09,7.58-1.67,2.78.44,5.65,1.18,8.39.19.45-.16.26-.89-.2-.72-3,1.1-6.18,0-9.24-.37-2.5-.29-5.3,0-7.06,2-.32.36.21.89.53.53Z"/><path class="cls-11" d="M111.68,40.62c2.55.22,5.46.34,7.41-1.63a.38.38,0,0,0-.53-.53c-1.8,1.81-4.55,1.61-6.88,1.41-.48,0-.48.71,0,.75Z"/><path class="cls-11" d="M92,52a12.94,12.94,0,0,1,2.68-.51,4.44,4.44,0,0,1,2.34.23c.54.26,1.14,1,.66,1.58a.53.53,0,0,1-.72.1.33.33,0,0,1,.08-.54c.46-.16.26-.88-.2-.73a1.1,1.1,0,0,0-.47,1.75,1.28,1.28,0,0,0,2-.27,1.74,1.74,0,0,0-.45-2.19,3.67,3.67,0,0,0-2.55-.72,13,13,0,0,0-3.56.58A.37.37,0,0,0,92,52Z"/><path class="cls-11" d="M73.35,46.87A5.54,5.54,0,0,0,75.87,46a3.07,3.07,0,0,0,1.28-2.12,2.11,2.11,0,0,0-1-2,1.77,1.77,0,0,0-2.11.09,1.56,1.56,0,0,0,.17,2.48c.4.27.78-.38.37-.64a.81.81,0,0,1,0-1.33,1.07,1.07,0,0,1,1.27.12c1,.81.32,2.27-.57,2.85a5.27,5.27,0,0,1-2.19.7.38.38,0,0,0-.26.47.4.4,0,0,0,.46.26Z"/><path class="cls-11" d="M86.16,63.34c1.52-2.79,5.26-1.13,7.54-.58,2,.48,4.93.41,5.64-2a.37.37,0,0,0-.72-.2,2.83,2.83,0,0,1-2.87,1.73,16.94,16.94,0,0,1-4.32-.94c-2.08-.53-4.75-.52-5.92,1.62-.23.43.41.81.65.38Z"/><path class="cls-11" d="M94,59.83a3.53,3.53,0,0,0,4-1.41c.26-.41-.39-.79-.65-.38a2.76,2.76,0,0,1-3.14,1.07c-.45-.16-.65.57-.2.72Z"/><path class="cls-11" d="M80.63,57.28a7,7,0,0,1,7.45-.93c.43.21.81-.44.38-.65a7.76,7.76,0,0,0-8.36,1c-.37.31.16.84.53.53Z"/><path class="cls-11" d="M59.9,49.84a2.88,2.88,0,0,0,2-1.92,5.17,5.17,0,0,1,1.66-2.65,2.3,2.3,0,0,1,2.79.09,1.6,1.6,0,0,1,0,2.47,1.19,1.19,0,0,1-1.4.07A.65.65,0,0,1,65,46.77c.43-.21,0-.85-.38-.65a1.33,1.33,0,0,0-.73,1.33,1.53,1.53,0,0,0,1,1.28,2.13,2.13,0,0,0,2.72-1.59,2.58,2.58,0,0,0-1.86-2.94,3.37,3.37,0,0,0-3.45,1.19,7.62,7.62,0,0,0-1.06,2.09,2.28,2.28,0,0,1-1.54,1.64c-.47.08-.27.8.2.72Z"/><path class="cls-11" d="M80.76,46.1a10.75,10.75,0,0,0,6.1-1.35c.42-.24,0-.88-.38-.65a10,10,0,0,1-5.72,1.25c-.48,0-.48.71,0,.75Z"/><path class="cls-11" d="M73.39,50.41c.1-1,1.56-1.18,2.33-1.15A2.55,2.55,0,0,1,78,50.62a1.51,1.51,0,0,1-.68,2,1.49,1.49,0,0,1-1.9-1.19c-.05-.4.2-1,.69-.88.33.07.47.54.07.62s-.27.82.2.73a1.07,1.07,0,0,0,.72-1.43,1.22,1.22,0,0,0-1.58-.57,1.57,1.57,0,0,0-.82,1.77A2.31,2.31,0,0,0,76,53.24a2,2,0,0,0,1.88-.05,2.29,2.29,0,0,0,1-1.54,2.83,2.83,0,0,0-2.22-3c-1.41-.39-3.84-.06-4,1.76,0,.48.71.47.75,0Z"/><path class="cls-11" d="M39.75,64.81a17.73,17.73,0,0,1,3.84-2.05c1.11-.37,3-.8,3.67.49s-.16,3.29-1.74,2.92a1.14,1.14,0,0,1-.9-1.38.86.86,0,0,1,1.4-.43c.35.32.88-.21.53-.53A1.63,1.63,0,0,0,43.83,65a2,2,0,0,0,2.83,1.76A2.83,2.83,0,0,0,48,63.1c-.63-1.47-2.28-1.6-3.67-1.32a15.15,15.15,0,0,0-5,2.38c-.4.26,0,.91.38.65Z"/></g></g></g></g></svg>